<?xml version="1.0" encoding="utf-8"?>
<!-- Generator: Adobe Illustrator 28.1.0, SVG Export Plug-In . SVG Version: 6.00 Build 0)  -->
<svg version="1.1" xmlns="http://www.w3.org/2000/svg" xmlns:xlink="http://www.w3.org/1999/xlink" x="0px" y="0px"
	 viewBox="0 0 500 500" style="enable-background:new 0 0 500 500;" xml:space="preserve">
<style type="text/css">
	.st0{fill:#F0F0F0;}
	.st1{fill:#E0E0E0;}
	.st2{fill:#27DEBF;}
	.st3{opacity:0.5;}
	.st4{opacity:0.7;}
	.st5{opacity:0.3;}
	.st6{opacity:0.7;fill:#27DEBF;}
	.st7{opacity:0.6;}
	.st8{opacity:0.2;}
	.st9{fill:#FAFAFA;}
	.st10{opacity:0.5;fill:#FFFFFF;}
	.st11{fill:#37474F;}
	.st12{opacity:0.8;}
	.st13{fill:#455A64;}
	.st14{opacity:0.4;}
	.st15{fill:#FFFFFF;}
	.st16{opacity:0.15;}
	.st17{opacity:0.9;fill:#37474F;}
	.st18{fill:#263238;}
	.st19{fill:#F5F5F5;}
	.st20{opacity:0.6;fill:#FFFFFF;}
	.st21{fill:#EBEBEB;}
	.st22{opacity:0.65;}
	.st23{fill:#FFA8A7;}
	.st24{fill:#F28F8F;}
</style>
<g id="Floor">
	<ellipse id="Floor_7_" class="st0" cx="249.05" cy="344.05" rx="236.58" ry="136.59"/>
</g>
<g id="Shadows">
	<ellipse id="Shadow_10_" class="st1" cx="384.66" cy="408.13" rx="35.11" ry="20.27"/>
	<path id="Shadow_18_" class="st1" d="M65.99,385.55l-39.27-22.67c-1.39-0.8-1.39-2.1,0-2.9l216.43-124.95c1.39-0.8,3.63-0.8,5.02,0
		l39.27,22.67c1.39,0.8,1.39,2.1,0,2.9L71.01,385.55C69.62,386.35,67.37,386.35,65.99,385.55z"/>
</g>
<g id="Device">
	<g id="PC">
		<g id="Monitor">
			<g id="XMLID_947_">
				<g id="XMLID_1161_">
					<path id="XMLID_1162_" class="st2" d="M202.19,350.05l31.62-18.28c3.26-1.88,4.89-4.35,4.89-6.81c0-2.47,0.01-4.4,0.01-4.4
						L200.67,299c-1.74-1-3.15-3.44-3.15-5.45v-38.98l-55.23,31.91l0,38.98c0,2.01,1.41,4.45,3.15,5.45l33.15,19.14
						C185.11,353.81,195.68,353.81,202.19,350.05z"/>
				</g>
				<g id="XMLID_941_" class="st3">
					<path id="XMLID_942_" d="M202.19,350.05l31.62-18.28c3.26-1.88,4.89-4.35,4.89-6.81c0-2.47,0.01-4.4,0.01-4.4L200.67,299
						c-1.74-1-3.15-3.44-3.15-5.45v-38.98l-55.23,31.91l0,38.98c0,2.01,1.41,4.45,3.15,5.45l33.15,19.14
						C185.11,353.81,195.68,353.81,202.19,350.05z"/>
				</g>
				<path id="XMLID_950_" class="st2" d="M155.55,332.36v4.38l-10.12-5.83c-1.73-1-3.14-3.43-3.14-5.45v-38.98l10.52-6.07
					c0.22,2.67,0.45,5.43,0.67,8.12l-7.38,4.27v30.46c0,2.02,1.4,4.45,3.14,5.45L155.55,332.36z"/>
				<path id="XMLID_2232_" class="st4" d="M155.55,332.36v4.38l-10.12-5.83c-1.73-1-3.14-3.43-3.14-5.45v-38.98l10.52-6.07
					c0.22,2.67,0.45,5.43,0.67,8.12l-7.38,4.27v30.46c0,2.02,1.4,4.45,3.14,5.45L155.55,332.36z"/>
				<path id="XMLID_949_" class="st2" d="M146.1,323.26c0,2.01,1.41,4.45,3.15,5.45l29.34,16.94c6.52,3.76,17.09,3.76,23.61,0
					l31.63-18.28c6.52-3.76,6.52-9.86,0-13.63l-29.35-16.95c-1.74-1-3.15-3.44-3.15-5.45l0-30.46L146.1,292.8V323.26z"/>
				<path id="XMLID_939_" class="st5" d="M146.1,323.26c0,2.01,1.41,4.45,3.15,5.45l29.34,16.94c6.52,3.76,17.09,3.76,23.61,0
					l31.63-18.28c6.52-3.76,6.52-9.86,0-13.63l-29.35-16.95c-1.74-1-3.15-3.44-3.15-5.45l0-30.46L146.1,292.8V323.26z"/>
				<path id="XMLID_948_" class="st6" d="M210.89,300.51L210.89,300.51l-6.41-3.71c-1.74-1-3.15-3.44-3.15-5.45l0-30.46L146.1,292.8
					v30.46c0,2.01,1.41,4.45,3.15,5.45l6.3,3.64L210.89,300.51z"/>
				<path id="XMLID_938_" class="st7" d="M210.89,300.51L210.89,300.51l-6.41-3.71c-1.74-1-3.15-3.44-3.15-5.45l0-30.46L146.1,292.8
					v30.46c0,2.01,1.41,4.45,3.15,5.45l6.3,3.64L210.89,300.51z"/>
				<path id="XMLID_2604_" class="st2" d="M238.71,320.56c0,0,0,1.93,0,4.4s-1.64,4.92-4.89,6.81l-31.62,18.27
					c-3.13,1.82-7.18,2.73-11.27,2.8v-4.38c4.09-0.05,8.14-1,11.27-2.8l31.62-18.29C237.07,325.5,238.71,323.03,238.71,320.56z"/>
				<path id="XMLID_940_" class="st8" d="M238.71,320.56c0,0,0,1.93,0,4.4s-1.64,4.92-4.89,6.81l-31.62,18.27
					c-3.13,1.82-7.18,2.73-11.27,2.8v-4.38c4.09-0.05,8.14-1,11.27-2.8l31.62-18.29C237.07,325.5,238.71,323.03,238.71,320.56z"/>
			</g>
			<path id="XMLID_946_" class="st2" d="M57.42,365.32c2.04,1.18,5.45,1.11,7.63-0.14C92.2,349.5,251.48,257.54,278.63,241.87
				c2.17-1.25,3.93-4.3,3.93-6.81V48.11c0-2.51-1.65-5.5-3.69-6.67c-2.04-1.18-5.45-1.11-7.62,0.14L57.67,164.89
				c-2.17,1.25-3.93,4.31-3.93,6.81l0,186.95C53.73,361.15,55.39,364.14,57.42,365.32z"/>
			<path id="XMLID_1163_" class="st5" d="M57.42,365.32c2.04,1.18,5.45,1.11,7.63-0.14C92.2,349.5,251.48,257.54,278.63,241.87
				c2.17-1.25,3.93-4.3,3.93-6.81V48.11c0-2.51-1.65-5.5-3.69-6.67c-2.04-1.18-5.45-1.11-7.62,0.14L57.67,164.89
				c-2.17,1.25-3.93,4.31-3.93,6.81l0,186.95C53.73,361.15,55.39,364.14,57.42,365.32z"/>
			<path id="XMLID_945_" class="st2" d="M65.05,365.17l213.58-123.31c2.17-1.25,3.93-4.31,3.93-6.81V48.1
				c0-2.51-1.76-3.53-3.93-2.27L65.05,169.14c-2.17,1.25-3.93,4.31-3.93,6.81l0,186.95C61.12,365.41,62.88,366.43,65.05,365.17z"/>
			<path id="XMLID_944_" class="st2" d="M65.05,365.17l213.58-123.31c2.17-1.25,3.93-4.31,3.93-6.81V48.1
				c0-2.51-1.76-3.53-3.93-2.27L65.05,169.14c-2.17,1.25-3.93,4.31-3.93,6.81l0,186.95C61.12,365.41,62.88,366.43,65.05,365.17z"/>
			<path id="XMLID_2052_" class="st3" d="M65.05,365.17l213.58-123.31c2.17-1.25,3.93-4.31,3.93-6.81V48.1
				c0-2.51-1.76-3.53-3.93-2.27L65.05,169.14c-2.17,1.25-3.93,4.31-3.93,6.81l0,186.95C61.12,365.41,62.88,366.43,65.05,365.17z"/>
			<path id="XMLID_2461_" class="st2" d="M64.47,365.47c-2.18,0.96-5.2,0.93-7.05-0.15c-2.04-1.18-3.69-4.16-3.69-6.69v-21.03
				l7.38,4.27v21.03C61.11,365.2,62.56,366.23,64.47,365.47z"/>
			<path id="XMLID_937_" class="st4" d="M64.47,365.47c-2.18,0.96-5.2,0.93-7.05-0.15c-2.04-1.18-3.69-4.16-3.69-6.69v-21.03
				l7.38,4.27v21.03C61.11,365.2,62.56,366.23,64.47,365.47z"/>
			<path id="XMLID_2302_" class="st2" d="M61.12,341.88l0,21.02c0,2.51,1.76,3.53,3.93,2.27l213.58-123.31
				c2.17-1.25,3.93-4.31,3.93-6.81v-21.03L61.12,341.88z"/>
			<g id="XMLID_427_" class="st3">
				<path d="M61.12,341.88l0,21.02c0,2.51,1.76,3.53,3.93,2.27l213.58-123.31c2.17-1.25,3.93-4.31,3.93-6.81v-21.03L61.12,341.88z"
					/>
			</g>
			<path id="XMLID_943_" class="st9" d="M68.5,326.37l0-147.96c0-1.51,1.06-3.34,2.36-4.09l201.96-116.6
				c1.3-0.75,2.36-0.14,2.36,1.36l0.01,147.96c0,1.51-1.06,3.34-2.36,4.09L70.86,327.73C69.55,328.48,68.5,327.87,68.5,326.37z"/>
			<path id="XMLID_413_" class="st2" d="M171.84,286.48c-2.04,1.18-3.69,4.04-3.69,6.39c0,2.35,1.65,3.31,3.69,2.13
				c2.04-1.18,3.69-4.04,3.69-6.39C175.53,286.25,173.88,285.3,171.84,286.48z"/>
			<path id="XMLID_2130_" class="st10" d="M171.84,286.48c-2.04,1.18-3.69,4.04-3.69,6.39c0,2.35,1.65,3.31,3.69,2.13
				c2.04-1.18,3.69-4.04,3.69-6.39C175.53,286.25,173.88,285.3,171.84,286.48z"/>
			<path id="XMLID_412_" class="st2" d="M62.27,172.06c-0.71,1.24-1.14,2.64-1.16,3.89v165.93l-7.38-4.27V171.7
				c0-1.25,0.45-2.65,1.16-3.89L62.27,172.06z"/>
			<path id="XMLID_2093_" class="st4" d="M62.27,172.06c-0.71,1.24-1.14,2.64-1.16,3.89v165.93l-7.38-4.27V171.7
				c0-1.25,0.45-2.65,1.16-3.89L62.27,172.06z"/>
		</g>
	</g>
	<g id="Keyboard">
		<path id="Shadow_19_" class="st1" d="M138.9,407.94l53.37,30.9c1.65,0.96,4.33,0.96,5.98,0.01l157.66-90.9
			c1.65-0.95,1.65-2.5,0-3.45l-53.37-30.9c-1.65-0.96-4.33-0.96-5.98-0.01l-157.66,90.9C137.25,405.44,137.24,406.99,138.9,407.94z"
			/>
		<g id="Keyboard_1_">
			<g id="XMLID_2228_">
				<path id="XMLID_2231_" class="st2" d="M352.67,339.01c0-0.62-0.41-1.25-1.24-1.73l-50.14-28.94c-1.65-0.95-4.33-0.95-5.98,0
					l-152.98,88.47c-0.83,0.48-1.24,1.1-1.24,1.73c0,0.62,0,4.63,0,5.26c0,0.63,0.41,1.25,1.24,1.73l50.11,28.94
					c1.65,0.95,4.33,0.95,5.98-0.01l153-88.33c0.82-0.47,1.24-1.1,1.24-1.72C352.67,343.78,352.67,339.64,352.67,339.01z"/>
				<path id="XMLID_2237_" class="st3" d="M352.67,339.01c0-0.62-0.41-1.25-1.24-1.73l-50.14-28.94c-1.65-0.95-4.33-0.95-5.98,0
					l-152.98,88.47c-0.83,0.48-1.24,1.1-1.24,1.73c0,0.62,0,4.63,0,5.26c0,0.63,0.41,1.25,1.24,1.73l50.11,28.94
					c1.65,0.95,4.33,0.95,5.98-0.01l153-88.33c0.82-0.47,1.24-1.1,1.24-1.72C352.67,343.78,352.67,339.64,352.67,339.01z"/>
				<path id="XMLID_2230_" class="st2" d="M192.45,429.07l-50.11-28.81c-1.65-0.95-1.66-2.49,0-3.45l152.98-88.47
					c1.65-0.95,4.33-0.96,5.98,0l50.14,28.94c1.65,0.95,1.65,2.5,0,3.45l-153,88.33C196.78,430.02,194.1,430.02,192.45,429.07z"/>
				<path id="XMLID_2234_" class="st5" d="M192.45,429.07l-50.11-28.81c-1.65-0.95-1.66-2.49,0-3.45l152.98-88.47
					c1.65-0.95,4.33-0.96,5.98,0l50.14,28.94c1.65,0.95,1.65,2.5,0,3.45l-153,88.33C196.78,430.02,194.1,430.02,192.45,429.07z"/>
				<path id="XMLID_2229_" class="st2" d="M195.25,429.78v5.38c-1.01-0.02-2.03-0.25-2.81-0.69l-50.09-28.94
					c-0.83-0.48-1.24-1.1-1.24-1.73v-5.27c0,0.62,0.41,1.24,1.24,1.73l50.09,28.82C193.22,429.52,194.24,429.76,195.25,429.78z"/>
				<path id="XMLID_2236_" class="st4" d="M195.25,429.78v5.38c-1.01-0.02-2.03-0.25-2.81-0.69l-50.09-28.94
					c-0.83-0.48-1.24-1.1-1.24-1.73v-5.27c0,0.62,0.41,1.24,1.24,1.73l50.09,28.82C193.22,429.52,194.24,429.76,195.25,429.78z"/>
			</g>
			<g>
				<path class="st11" d="M259.24,345.61l5.71,3.3c0.14,0.08,0.3,0.09,0.36,0.09l5.27-2.93l-6.14-3.45L259.24,345.61z"/>
				<path class="st11" d="M266.11,341.64l5.74,3.31c0.09,0.05,0.21,0.07,0.34,0.07l0.21-0.01l5.05-2.92l-6.14-3.45L266.11,341.64z"
					/>
				<path class="st11" d="M247.67,352.29l5.73,3.31c0.09,0.05,0.22,0.07,0.34,0.07l8.53-4.81l-6.14-3.46L247.67,352.29z"/>
				<path class="st11" d="M240.8,356.26l5.73,3.31c0.09,0.05,0.22,0.08,0.34,0.08l5.27-2.93l-6.14-3.45L240.8,356.26z"/>
				<path class="st11" d="M209.4,408.18l5.27-2.93l-6.14-3.45l-5.2,3l5.74,3.31C209.16,408.15,209.28,408.18,209.4,408.18z"/>
				<path class="st11" d="M233.92,360.22l5.7,3.29c0.13,0.08,0.29,0.09,0.37,0.09l5.27-2.93l-6.14-3.46L233.92,360.22z"/>
				<path class="st11" d="M272.21,347.09l-5.2,3l5.72,3.3c0.1,0.05,0.22,0.08,0.35,0.08l5.27-2.93L272.21,347.09z"/>
				<path class="st11" d="M253,374.04l5.27-2.93l-6.14-3.45l-5.2,3l5.73,3.31C252.74,374.01,252.87,374.04,253,374.04z"/>
				<path class="st11" d="M279.96,349.51l5.27-2.93l-6.15-3.45l-5.19,3l5.73,3.31C279.71,349.48,279.83,349.51,279.96,349.51z"/>
				<path class="st11" d="M246.13,378.01l5.27-2.93l-6.15-3.45l-5.2,3l5.7,3.29C245.89,378,246.04,378.01,246.13,378.01z"/>
				<path class="st11" d="M239.26,381.98l5.27-2.93l-6.14-3.45l-5.2,3l5.74,3.31C239.01,381.95,239.13,381.98,239.26,381.98z"/>
				<path class="st11" d="M266.74,366.1l11.05-6.27l-13.9-7.94l-5.93,3.42l7.27,4.19c0.09,0.05,0.21,0.15,0.21,0.3
					c0,0.1-0.07,0.2-0.18,0.27l-4.59,2.65l5.7,3.29C266.5,366.09,266.66,366.1,266.74,366.1z"/>
				<path class="st11" d="M220.18,368.16l5.73,3.31c0.09,0.05,0.22,0.08,0.34,0.08l5.27-2.93l-6.14-3.45L220.18,368.16z"/>
				<path class="st11" d="M259.87,370.07l5.27-2.93l-6.14-3.45l-5.2,3l5.7,3.29C259.63,370.06,259.8,370.07,259.87,370.07z"/>
				<path class="st11" d="M181.57,406.31l5.27-2.93l-6.14-3.45l-5.2,3l5.7,3.29C181.34,406.3,181.5,406.31,181.57,406.31z"/>
				<path class="st11" d="M165.2,399.9l5.75,3.32c0.09,0.04,0.21,0.07,0.33,0.07l0.21-0.01l5.05-2.92l-6.14-3.45L165.2,399.9z"/>
				<path class="st11" d="M191.15,409.75l0.21-0.01l5.05-2.92l-6.14-3.45l-5.2,3l5.74,3.31
					C190.9,409.72,191.02,409.75,191.15,409.75z"/>
				<path class="st11" d="M195.66,416.11l5.27-2.93l-6.15-3.45l-5.2,3l5.7,3.29C195.43,416.11,195.59,416.11,195.66,416.11z"/>
				<path class="st11" d="M172.07,395.93l5.74,3.31c0.09,0.05,0.22,0.07,0.34,0.07l5.27-2.93l-6.14-3.45L172.07,395.93z"/>
				<path class="st11" d="M202.53,412.15l5.26-2.93l-6.14-3.45l-5.2,3l5.73,3.31C202.28,412.12,202.41,412.15,202.53,412.15z"/>
				<path class="st11" d="M192.69,384.03l5.73,3.31c0.1,0.05,0.22,0.08,0.34,0.08l5.27-2.93l-6.14-3.45L192.69,384.03z"/>
				<path class="st11" d="M199.56,380.06l5.72,3.3c0.1,0.05,0.23,0.09,0.36,0.09l5.27-2.93l-6.14-3.45L199.56,380.06z"/>
				<path class="st11" d="M206.43,376.09l5.7,3.29c0.13,0.08,0.29,0.09,0.37,0.09l5.27-2.93l-6.15-3.45L206.43,376.09z"/>
				<path class="st11" d="M185.81,388l5.7,3.29c0.13,0.08,0.29,0.09,0.37,0.09l5.27-2.93l-6.14-3.45L185.81,388z"/>
				<path class="st11" d="M213.31,372.13l5.73,3.31c0.05,0.02,0.17,0.08,0.34,0.08l5.27-2.93l-6.15-3.45L213.31,372.13z"/>
				<path class="st11" d="M178.94,391.97l5.73,3.31c0.1,0.05,0.22,0.08,0.35,0.08l5.27-2.93l-6.15-3.45L178.94,391.97z"/>
				<path class="st11" d="M227.05,364.19l5.74,3.32c0.09,0.04,0.21,0.07,0.33,0.07l5.27-2.93l-6.14-3.45L227.05,364.19z"/>
				<path class="st11" d="M244.22,363.25l5.71,3.3c0.13,0.08,0.29,0.09,0.36,0.09l0.21-0.01l5.05-2.92l-6.14-3.45L244.22,363.25z"/>
				<path class="st11" d="M281.31,332.87l5.71,3.3c0.14,0.08,0.3,0.09,0.36,0.09l5.27-2.93l-6.14-3.45L281.31,332.87z"/>
				<path class="st11" d="M288.18,328.9l5.71,3.29c0.1,0.06,0.23,0.09,0.36,0.09l5.27-2.93l-6.14-3.45L288.18,328.9z"/>
				<path class="st11" d="M237.35,367.21l5.72,3.3c0.13,0.07,0.28,0.08,0.36,0.08l5.27-2.93l-6.14-3.45L237.35,367.21z"/>
				<path class="st11" d="M295.05,324.93l5.71,3.3c0.14,0.08,0.3,0.09,0.36,0.09l5.27-2.93l-6.14-3.46L295.05,324.93z"/>
				<path class="st11" d="M257.17,362.66l0.21-0.01l5.05-2.92l-6.14-3.45l-5.2,3l5.71,3.3
					C256.94,362.65,257.09,362.66,257.17,362.66z"/>
				<path class="st11" d="M289.07,337.35l5.7,3.29c0.13,0.09,0.29,0.1,0.38,0.1l5.27-2.93l-6.14-3.45L289.07,337.35z"/>
				<path class="st11" d="M302.82,329.41l5.7,3.29c0.14,0.09,0.31,0.1,0.37,0.1l5.27-2.93l-6.14-3.45L302.82,329.41z"/>
				<path class="st11" d="M302.02,336.77l5.27-2.93l-6.14-3.45l-5.2,3l5.73,3.31C301.77,336.74,301.89,336.77,302.02,336.77z"/>
				<path class="st11" d="M323.21,333.25c0.09,0.04,0.21,0.07,0.33,0.07l0.21-0.01l5.05-2.92l-13.91-7.94l-5.2,3L323.21,333.25z"/>
				<path class="st11" d="M230.47,371.18l5.71,3.3c0.13,0.08,0.28,0.09,0.36,0.09l0.21-0.01l5.06-2.92l-6.14-3.45L230.47,371.18z"/>
				<path class="st11" d="M309.79,341.25l0.21-0.01l5.05-2.92l-6.14-3.45l-5.2,3l5.71,3.3
					C309.56,341.24,309.71,341.25,309.79,341.25z"/>
				<path class="st11" d="M316.66,337.28l5.27-2.93l-6.15-3.45l-5.2,3l5.7,3.29C316.42,337.27,316.58,337.28,316.66,337.28z"/>
				<path class="st11" d="M196.11,391.02l5.71,3.29c0.13,0.08,0.29,0.09,0.37,0.09l5.27-2.93l-6.14-3.45L196.11,391.02z"/>
				<path class="st11" d="M182.37,398.96l5.7,3.29c0.13,0.08,0.29,0.09,0.37,0.09l0.21-0.01l5.06-2.92l-6.14-3.45L182.37,398.96z"/>
				<path class="st11" d="M204.89,401.82l5.27-2.93l-6.15-3.45l-5.2,3l5.74,3.31C204.61,401.77,204.73,401.82,204.89,401.82z"/>
				<path class="st11" d="M198.02,405.78l5.27-2.93l-6.15-3.45l-5.2,3l5.74,3.31C197.77,405.76,197.89,405.78,198.02,405.78z"/>
				<path class="st11" d="M211.76,397.85l0.21-0.01l5.06-2.91l-6.14-3.45l-5.2,3l5.7,3.29C211.53,397.84,211.7,397.85,211.76,397.85
					z"/>
				<path class="st11" d="M223.6,375.15l5.72,3.3c0.1,0.05,0.23,0.08,0.36,0.08l0.21-0.01l5.05-2.92l-6.14-3.45L223.6,375.15z"/>
				<path class="st11" d="M225.51,389.91l5.27-2.93l-6.14-3.45l-5.2,3l5.7,3.29C225.28,389.9,225.44,389.91,225.51,389.91z"/>
				<path class="st11" d="M218.64,393.88l5.27-2.93l-6.15-3.45l-5.2,3l5.74,3.31C218.39,393.85,218.52,393.88,218.64,393.88z"/>
				<path class="st11" d="M209.86,383.09l5.71,3.29c0.13,0.08,0.29,0.09,0.37,0.09l5.27-2.93l-6.14-3.45L209.86,383.09z"/>
				<path class="st11" d="M189.24,394.99l5.7,3.29c0.13,0.08,0.29,0.09,0.37,0.09l5.27-2.93l-6.14-3.45L189.24,394.99z"/>
				<path class="st11" d="M216.73,379.12l5.71,3.3c0.13,0.08,0.29,0.09,0.36,0.09l5.27-2.93l-6.14-3.45L216.73,379.12z"/>
				<path class="st11" d="M202.99,387.05l5.7,3.29c0.13,0.08,0.29,0.09,0.37,0.09l0.21-0.01l5.05-2.92l-6.14-3.45L202.99,387.05z"/>
				<path class="st11" d="M232.38,385.94l5.27-2.93l-6.14-3.45l-5.2,3l5.73,3.31C232.13,385.92,232.25,385.94,232.38,385.94z"/>
				<path class="st11" d="M272.99,337.67l5.74,3.31c0.09,0.05,0.21,0.07,0.34,0.07l5.27-2.93l-6.14-3.45L272.99,337.67z"/>
				<path class="st11" d="M163.52,400.87l-5.2,3l5.74,3.31c0.09,0.05,0.21,0.07,0.34,0.07l0.21-0.01l5.06-2.92L163.52,400.87z"/>
				<path class="st11" d="M173.82,403.89l-7.73,4.46l5.74,3.31c0.09,0.05,0.21,0.07,0.34,0.07l0.21-0.01l7.59-4.38L173.82,403.89z"
					/>
				<path class="st11" d="M155.18,394.8l-6.28,3.63l5.71,3.3c0.13,0.08,0.29,0.09,0.36,0.09l6.35-3.56L155.18,394.8z"/>
				<path class="st11" d="M187.91,413.7l-6.28,3.63l5.7,3.29c0.14,0.08,0.3,0.09,0.37,0.09l6.35-3.56L187.91,413.7z"/>
				<path class="st11" d="M183.39,407.33l-9.54,5.51l5.74,3.31c0.09,0.05,0.21,0.07,0.34,0.07l0.21-0.01l9.4-5.42L183.39,407.33z"/>
				<path class="st11" d="M165.92,395.49l5.27-2.93l-6.14-3.45l-5.2,3l5.7,3.29C165.68,395.48,165.84,395.49,165.92,395.49z"/>
				<path class="st11" d="M189.39,421.81l5.71,3.3c0.1,0.06,0.23,0.09,0.36,0.09l7.8-4.4l-6.14-3.45L189.39,421.81z"/>
				<path class="st11" d="M172.79,391.52l5.27-2.93l-6.14-3.45l-5.2,3l5.73,3.31C172.55,391.5,172.67,391.52,172.79,391.52z"/>
				<path class="st11" d="M203.27,373.93l0.21-0.01l5.06-2.92l-6.14-3.45l-5.2,3l5.72,3.3
					C203.01,373.89,203.14,373.93,203.27,373.93z"/>
				<path class="st11" d="M210.14,369.96l5.27-2.93l-6.14-3.45l-5.2,3l5.72,3.3C209.92,369.95,210.07,369.96,210.14,369.96z"/>
				<path class="st11" d="M196.4,377.89l0.21-0.01l5.06-2.92l-6.14-3.45l-5.2,3l5.7,3.29C196.16,377.88,196.33,377.89,196.4,377.89z
					"/>
				<path class="st11" d="M186.53,383.59l0.21-0.01l5.06-2.92l-6.14-3.45l-5.2,3l5.72,3.3C186.27,383.56,186.4,383.59,186.53,383.59
					z"/>
				<path class="st11" d="M179.66,387.56l5.27-2.93l-6.14-3.45l-5.2,3l5.73,3.31C179.41,387.53,179.53,387.56,179.66,387.56z"/>
				<path class="st11" d="M326.12,342.87l5.75,3.32c0.09,0.04,0.21,0.07,0.33,0.07l0.21-0.01l5.06-2.92l-6.14-3.45L326.12,342.87z"
					/>
				<path class="st11" d="M290.31,363.54l5.7,3.29c0.13,0.08,0.29,0.1,0.37,0.1l5.27-2.93l-6.14-3.45L290.31,363.54z"/>
				<path class="st11" d="M312.38,350.81l5.71,3.29c0.14,0.08,0.3,0.09,0.36,0.09l0.21-0.01l11.93-6.89l-6.14-3.45L312.38,350.81z"
					/>
				<path class="st11" d="M297.18,359.58l5.7,3.29c0.13,0.08,0.29,0.1,0.38,0.1l5.27-2.93l-6.14-3.45L297.18,359.58z"/>
				<path class="st11" d="M304.06,355.61l5.68,3.28c0.14,0.09,0.31,0.11,0.4,0.11l5.27-2.93l-6.14-3.45L304.06,355.61z"/>
				<path class="st11" d="M217.01,365.99l0.21-0.01l5.06-2.92l-6.14-3.45l-5.2,3l5.7,3.29
					C216.78,365.98,216.93,365.99,217.01,365.99z"/>
				<path class="st11" d="M330.43,331.41l-5.2,3l13.52,7.8c0.09,0.04,0.21,0.07,0.33,0.07l0.21-0.01l5.05-2.92L330.43,331.41z"/>
				<path class="st11" d="M206.76,411.79l5.7,3.29c0.14,0.08,0.3,0.09,0.37,0.09l6.35-3.56l-6.14-3.45L206.76,411.79z"/>
				<path class="st11" d="M214.71,407.19l5.69,3.29c0.14,0.09,0.29,0.1,0.38,0.1l0.21-0.01l39.06-22.55l-6.14-3.46L214.71,407.19z"
					/>
				<path class="st11" d="M216.27,404.21l5.27-2.93l-6.14-3.45l-5.2,3l5.73,3.31C216.03,404.18,216.15,404.21,216.27,404.21z"/>
				<path class="st11" d="M198.8,416.38l5.7,3.29c0.13,0.08,0.29,0.09,0.37,0.09l6.35-3.56l-6.14-3.45L198.8,416.38z"/>
				<path class="st11" d="M255.59,383.59l5.71,3.3c0.13,0.08,0.28,0.09,0.36,0.09l0.21-0.01l6.14-3.54l-6.15-3.45L255.59,383.59z"/>
				<path class="st11" d="M271.5,374.4l5.72,3.3c0.13,0.07,0.28,0.08,0.35,0.08l0.21-0.01l6.14-3.54l-6.14-3.45L271.5,374.4z"/>
				<path class="st11" d="M263.54,379l5.74,3.31c0.1,0.05,0.22,0.08,0.34,0.08l6.35-3.56l-6.15-3.45L263.54,379z"/>
				<path class="st11" d="M279.46,369.81l5.71,3.3c0.13,0.08,0.28,0.09,0.36,0.09l0.21-0.01l7.58-4.38l-6.14-3.45L279.46,369.81z"/>
				<path class="st11" d="M286.83,345.54l0.21-0.01l5.05-2.92l-6.14-3.45l-5.2,3l5.72,3.3C286.57,345.51,286.7,345.54,286.83,345.54
					z"/>
				<path class="st11" d="M295.49,358.48l0.21-0.01l5.05-2.92l-6.14-3.45l-5.2,3l5.72,3.31
					C295.27,358.47,295.41,358.48,295.49,358.48z"/>
				<path class="st11" d="M271.26,372.47l14.31-8.15l-6.14-3.45l-14.24,8.22l5.74,3.31C270.97,372.42,271.09,372.47,271.26,372.47z"
					/>
				<path class="st11" d="M310.68,349.7l0.21-0.01l5.05-2.92l-6.14-3.45l-5.2,3l5.74,3.31C310.44,349.68,310.56,349.7,310.68,349.7z
					"/>
				<path class="st11" d="M317.56,345.74l0.21-0.01l5.05-2.92l-6.14-3.45l-5.2,3l5.72,3.3
					C317.33,345.73,317.48,345.74,317.56,345.74z"/>
				<path class="st11" d="M264.38,376.44l5.27-2.93l-6.14-3.45l-5.2,3l5.71,3.3C264.11,376.4,264.25,376.44,264.38,376.44z"/>
				<path class="st11" d="M302.92,345.22l0.21-0.01l5.05-2.92l-6.14-3.45l-5.2,3l5.7,3.29
					C302.67,345.21,302.83,345.22,302.92,345.22z"/>
				<path class="st11" d="M230.02,396.27l5.27-2.93l-6.14-3.45l-5.2,3l5.73,3.31C229.77,396.25,229.89,396.27,230.02,396.27z"/>
				<path class="st11" d="M257.51,380.4l5.26-2.93l-6.14-3.45l-5.2,3l5.75,3.32C257.23,380.36,257.35,380.4,257.51,380.4z"/>
				<path class="st11" d="M223.15,400.24l0.21-0.01l5.05-2.92l-6.14-3.45l-5.2,3l5.74,3.31
					C222.9,400.22,223.02,400.24,223.15,400.24z"/>
				<path class="st11" d="M236.89,392.31l5.27-2.93l-6.14-3.45l-5.2,3l5.75,3.32C236.63,392.27,236.74,392.31,236.89,392.31z"/>
				<path class="st11" d="M243.77,388.34l0.21-0.01l5.05-2.92l-6.14-3.45l-5.2,3l5.7,3.29
					C243.53,388.33,243.68,388.34,243.77,388.34z"/>
				<path class="st11" d="M250.64,384.37l0.21-0.01l5.06-2.92l-6.14-3.45l-5.2,3l5.74,3.31
					C250.39,384.34,250.51,384.37,250.64,384.37z"/>
				<path class="st11" d="M233.75,356.33l5.27-2.93l-6.14-3.45l-5.2,3l5.7,3.29C233.51,356.32,233.67,356.33,233.75,356.33z"/>
				<path class="st11" d="M324.43,341.77l0.21-0.01l5.06-2.92l-6.15-3.45l-5.2,3l5.74,3.31
					C324.18,341.74,324.3,341.77,324.43,341.77z"/>
				<path class="st11" d="M247.5,348.39l5.27-2.93l-6.14-3.45l-5.2,3l5.7,3.29C247.26,348.38,247.41,348.39,247.5,348.39z"/>
				<path class="st11" d="M262.76,339.58l5.27-2.93l-6.14-3.45l-5.2,3l5.71,3.3C262.53,339.57,262.68,339.58,262.76,339.58z"/>
				<path class="st11" d="M255.89,343.55l5.26-2.93l-6.14-3.45l-5.2,3l5.71,3.3C255.66,343.54,255.81,343.55,255.89,343.55z"/>
				<path class="st11" d="M226.88,360.3l5.27-2.93l-6.14-3.45l-5.2,3l5.72,3.3C226.65,360.28,226.8,360.3,226.88,360.3z"/>
				<path class="st11" d="M240.62,352.36l0.21-0.01l5.05-2.92l-6.14-3.45l-5.2,3l5.71,3.29
					C240.39,352.35,240.54,352.36,240.62,352.36z"/>
				<path class="st11" d="M269.63,335.61l5.26-2.93l-6.14-3.45l-5.2,3l5.71,3.3C269.4,335.6,269.55,335.61,269.63,335.61z"/>
				<path class="st11" d="M296.58,317.75l5.26-2.93l-3.34-1.8l-5.2,3l2.93,1.65C296.32,317.72,296.45,317.75,296.58,317.75z"/>
				<path class="st11" d="M308,324.35l5.27-2.93l-6.14-3.45l-5.2,3l5.71,3.29C307.77,324.34,307.93,324.35,308,324.35z"/>
				<path class="st11" d="M275.96,329.66l0.21-0.01l5.05-2.92l-3.34-1.8l-5.2,3l2.91,1.64
					C275.73,329.64,275.88,329.66,275.96,329.66z"/>
				<path class="st11" d="M282.83,325.69l0.21-0.01l5.05-2.92l-3.34-1.8l-5.2,3l2.94,1.66
					C282.59,325.66,282.71,325.69,282.83,325.69z"/>
				<path class="st11" d="M289.7,321.72l5.26-2.93l-3.34-1.8l-5.2,3l2.94,1.66C289.46,321.69,289.58,321.72,289.7,321.72z"/>
			</g>
		</g>
	</g>
</g>
<g id="Windows">
	<g>
		<g id="XMLID_392_">
			<g id="XMLID_2378_" class="st12">
				<g>
					<g id="XMLID_17_">
						<path class="st13" d="M297.52,62.76v148.46c0,1.97-1.39,4.36-3.09,5.34L94.35,332.29c-0.35,0.2-0.71,0.3-1.02,0.29
							c-0.13,0-0.26-0.02-0.39-0.05c-0.09-0.02-0.18-0.05-0.26-0.09c-0.06-0.03-0.11-0.06-0.16-0.09c-0.06-0.04-0.12-0.08-0.18-0.12
							c-0.06-0.05-0.12-0.09-0.17-0.15c-0.24-0.22-0.43-0.5-0.57-0.81c-0.2-0.46-0.32-0.99-0.32-1.56V182.01
							c0-1.96,1.39-4.36,3.09-5.34L294.44,60.97c0.8-0.46,1.52-0.53,2.07-0.26c0.09,0.04,0.18,0.09,0.26,0.15
							c0.01,0.01,0.02,0.02,0.02,0.02c0.08,0.06,0.14,0.12,0.2,0.2c0.04,0.03,0.06,0.07,0.09,0.11c0.04,0.05,0.08,0.1,0.1,0.16
							c0.08,0.12,0.14,0.25,0.18,0.39c0.03,0.08,0.06,0.17,0.07,0.27c0.01,0.02,0.02,0.04,0.01,0.06c0.03,0.09,0.04,0.18,0.05,0.28
							C297.51,62.49,297.52,62.62,297.52,62.76z"/>
						<path class="st13" d="M295.81,61.56c0.11,0,0.2,0.02,0.3,0.07c0.01,0.01,0.02,0.01,0.03,0.02l0,0l0.06,0.04l0.08,0.11l0,0
							l0.07,0.11c0.01,0.01,0.02,0.03,0.03,0.04l-0.02,0.03l0.1,0.29l0,0.03l0.02,0.04l0.01,0.03c0.01,0.03,0.01,0.06,0.01,0.07
							c0.01,0.1,0.02,0.2,0.02,0.3v148.46c0,1.62-1.18,3.67-2.59,4.48L93.85,331.43c-0.25,0.14-0.42,0.16-0.52,0.16c0,0,0,0-0.01,0
							c-0.04,0-0.1-0.01-0.21-0.04c-0.03-0.01-0.05-0.03-0.08-0.04l-0.13-0.08l-0.02-0.02l-0.01-0.02l-0.05-0.05
							c-0.13-0.12-0.24-0.28-0.33-0.48c-0.16-0.35-0.24-0.75-0.24-1.15V182.01c0-1.62,1.18-3.67,2.59-4.48L294.93,61.84
							C295.26,61.66,295.56,61.56,295.81,61.56 M295.81,60.56c-0.41,0-0.88,0.13-1.37,0.42L94.35,176.66
							c-1.7,0.98-3.09,3.38-3.09,5.34v147.71c0,0.57,0.12,1.1,0.32,1.56c0.14,0.31,0.32,0.59,0.57,0.81
							c0.05,0.06,0.11,0.1,0.17,0.15c0.06,0.04,0.12,0.08,0.18,0.12c0.05,0.03,0.1,0.06,0.16,0.09c0.08,0.04,0.17,0.07,0.26,0.09
							c0.13,0.03,0.26,0.05,0.39,0.05c0.01,0,0.03,0,0.04,0c0.3,0,0.64-0.1,0.98-0.29l200.09-115.74c1.7-0.98,3.09-3.37,3.09-5.34
							V62.76c0-0.13-0.01-0.26-0.02-0.38c-0.01-0.1-0.02-0.19-0.05-0.28c0.01-0.02,0-0.04-0.01-0.06c-0.01-0.1-0.04-0.19-0.07-0.27
							c-0.04-0.14-0.1-0.27-0.18-0.39c-0.02-0.06-0.06-0.11-0.1-0.16c-0.03-0.04-0.05-0.08-0.09-0.11c-0.06-0.08-0.12-0.14-0.2-0.2
							c0,0-0.01-0.01-0.02-0.02c-0.08-0.06-0.17-0.11-0.26-0.15C296.3,60.61,296.06,60.56,295.81,60.56L295.81,60.56z"/>
					</g>
				</g>
				<g>
					<g id="XMLID_16_" class="st4">
						<path class="st13" d="M297.52,62.76v148.46c0,1.97-1.39,4.36-3.09,5.34L94.35,332.29c-0.35,0.2-0.71,0.3-1.02,0.29
							c-0.13,0-0.26-0.02-0.39-0.05c-0.09-0.02-0.18-0.05-0.26-0.09c-0.06-0.03-0.11-0.06-0.16-0.09c-0.06-0.04-0.12-0.08-0.18-0.12
							c-0.06-0.05-0.12-0.09-0.17-0.15c-0.24-0.22-0.43-0.5-0.57-0.81c-0.2-0.46-0.32-0.99-0.32-1.56V182.01
							c0-1.96,1.39-4.36,3.09-5.34L294.44,60.97c0.8-0.46,1.52-0.53,2.07-0.26c0.09,0.04,0.18,0.09,0.26,0.15
							c0.01,0.01,0.02,0.02,0.02,0.02c0.08,0.06,0.14,0.12,0.2,0.2c0.04,0.03,0.06,0.07,0.09,0.11c0.04,0.05,0.08,0.1,0.1,0.16
							c0.08,0.12,0.14,0.25,0.18,0.39c0.03,0.08,0.06,0.17,0.07,0.27c0.01,0.02,0.02,0.04,0.01,0.06c0.03,0.09,0.04,0.18,0.05,0.28
							C297.51,62.49,297.52,62.62,297.52,62.76z"/>
					</g>
				</g>
			</g>
			<g id="XMLID_2368_">
				<g id="XMLID_2292_">
					<path class="st2" d="M296.51,60.71c-0.56-0.26-1.27-0.19-2.07,0.26L94.35,176.66c-1.7,0.98-3.09,3.38-3.09,5.34v10.08
						l-3.94-2.31v-10.01c0-1.96,1.38-4.35,3.08-5.33L290.5,58.75c0.88-0.52,1.67-0.53,2.24-0.18
						C293.29,58.9,295.86,60.37,296.51,60.71z"/>
				</g>
				<path id="XMLID_2375_" class="st2" d="M297.52,62.73c-0.01-1.95-1.39-2.73-3.08-1.76L94.34,176.67
					c-1.7,0.98-3.08,3.37-3.08,5.34l0,10.08L297.52,72.85V62.73z"/>
				<g id="XMLID_2373_" class="st14">
					<path class="st15" d="M294.44,60.98L94.35,176.67c-0.84,0.49-1.62,1.33-2.17,2.29l-3.92-2.27c0.55-0.95,1.31-1.78,2.14-2.25
						L290.5,58.75c0.88-0.51,1.67-0.52,2.24-0.18c0.55,0.34,3.11,1.79,3.76,2.14C295.96,60.44,295.23,60.52,294.44,60.98z"/>
				</g>
				<path id="XMLID_2369_" class="st16" d="M87.32,189.79l0-10.02c0-1,0.37-2.1,0.94-3.08l3.93,2.26c-0.57,0.97-0.92,2.07-0.92,3.06
					v10.08L87.32,189.79z"/>
			</g>
			<g id="XMLID_2325_">
				<path id="XMLID_2332_" class="st13" d="M278.95,74.21c-0.96,0.56-1.74,2.21-1.74,3.69c0,1.48,0.78,2.23,1.74,1.68
					c0.96-0.56,1.74-2.21,1.74-3.69C280.69,74.41,279.91,73.66,278.95,74.21z"/>
				<path id="XMLID_2331_" class="st13" d="M285.22,70.59c-0.96,0.56-1.74,2.21-1.74,3.69c0,1.48,0.78,2.23,1.74,1.68
					c0.96-0.56,1.74-2.21,1.74-3.69C286.96,70.78,286.18,70.03,285.22,70.59z"/>
				<path id="XMLID_2330_" class="st13" d="M291.49,66.96c-0.96,0.56-1.74,2.21-1.74,3.69c0,1.48,0.78,2.23,1.74,1.68
					c0.96-0.56,1.74-2.21,1.74-3.69S292.45,66.4,291.49,66.96z"/>
			</g>
			<path id="XMLID_2294_" class="st17" d="M92.39,332.3c-0.11-0.07-0.24-0.14-0.38-0.22c-0.28-0.17-0.61-0.35-0.95-0.54l-0.01-0.01
				c-0.17-0.1-0.34-0.2-0.52-0.29c-0.01-0.01-0.03-0.02-0.04-0.02c-0.28-0.16-0.56-0.32-0.81-0.47c-0.26-0.15-0.5-0.28-0.68-0.38
				c-0.18-0.11-0.32-0.18-0.38-0.21c-0.19-0.1-0.37-0.24-0.53-0.43c-0.16-0.17-0.3-0.38-0.42-0.63c-0.22-0.47-0.35-1.03-0.35-1.63
				v-137.7l3.94,2.31v137.63c0.03,0.61,0.14,1.12,0.32,1.56c0.14,0.31,0.32,0.59,0.57,0.81c0.04,0.06,0.1,0.11,0.17,0.15
				C92.34,332.26,92.36,332.28,92.39,332.3z"/>
		</g>
		<g id="XMLID_394_">
			<g id="XMLID_387_">
				<path id="XMLID_338_" class="st18" d="M158.15,243.47c0,0-7.28-4.71-8.23-4.74c-0.94-0.03-20.69-0.65-20.69-0.65l8.23,4.38v0.36
					L158.15,243.47z"/>
				<path id="XMLID_2346_" class="st9" d="M122.67,257.66V244.7l35.48-44.11v17.2l-20.69,24.67v0.36l20.69,0.65v17.2L122.67,257.66z
					"/>
				<polygon id="XMLID_259_" class="st13" points="158.15,200.59 149.93,195.85 114.44,239.96 122.67,244.7 				"/>
				<polygon id="XMLID_332_" class="st11" points="114.44,239.96 114.44,252.92 122.67,257.66 122.67,244.7 				"/>
			</g>
			<g id="XMLID_389_">
				<path id="XMLID_2362_" class="st9" d="M179.63,252.15l-11.02,6.36l27.46-100.64l10.62-6.13L179.63,252.15z"/>
				<polygon id="XMLID_365_" class="st13" points="206.7,151.73 198.47,146.99 187.85,153.12 196.08,157.86 				"/>
				<polygon id="XMLID_375_" class="st11" points="187.85,153.12 196.08,157.86 168.62,258.51 160.39,253.77 				"/>
			</g>
			<g id="XMLID_391_">
				<polygon id="XMLID_377_" class="st18" points="208.94,204.66 217.16,209.4 237.85,184.5 229.63,179.76 				"/>
				<g id="XMLID_2333_">
					<path id="XMLID_2366_" class="st9" d="M237.85,184.5l-20.69-0.77v-17.2l35.48,3.13v12.96l-35.48,43.99v-17.2l20.69-24.54V184.5
						z"/>
				</g>
				<polygon id="XMLID_376_" class="st13" points="208.94,161.78 217.16,166.52 252.64,169.66 244.42,164.92 				"/>
				<polyline id="XMLID_384_" class="st11" points="217.16,166.52 217.16,183.72 208.94,178.98 208.94,161.78 				"/>
				<polygon id="XMLID_385_" class="st11" points="208.94,204.66 217.16,209.4 217.16,226.6 208.94,221.86 				"/>
			</g>
		</g>
	</g>
	<g id="XMLID_2070_">
		<g id="XMLID_397_">
			<g id="XMLID_2295_" class="st12">
				<g>
					<g id="XMLID_15_">
						<path class="st13" d="M362.13,88.36v148.46c0,1.97-1.39,4.36-3.09,5.34l-85.29,49.21c-0.35,0.2-0.71,0.3-1.02,0.29
							c-0.13,0-0.26-0.02-0.39-0.05c-0.09-0.02-0.18-0.05-0.26-0.09c-0.06-0.03-0.11-0.06-0.16-0.09c-0.06-0.04-0.12-0.08-0.18-0.12
							c-0.06-0.05-0.12-0.09-0.17-0.15c-0.24-0.22-0.43-0.5-0.57-0.81c-0.2-0.46-0.32-0.99-0.32-1.56V141.08
							c0-1.96,1.39-4.36,3.09-5.34l85.29-49.16c0.8-0.46,1.52-0.53,2.07-0.26c0.09,0.04,0.18,0.09,0.26,0.15
							c0.01,0.01,0.02,0.02,0.02,0.02c0.08,0.06,0.14,0.12,0.2,0.2c0.04,0.03,0.06,0.07,0.09,0.11c0.04,0.05,0.08,0.1,0.1,0.16
							c0.08,0.12,0.14,0.25,0.18,0.39c0.03,0.08,0.06,0.17,0.07,0.27c0.01,0.02,0.02,0.04,0.01,0.06c0.03,0.09,0.04,0.18,0.05,0.28
							C362.12,88.1,362.13,88.23,362.13,88.36z"/>
						<path class="st13" d="M360.41,87.16c0.11,0,0.2,0.02,0.3,0.07c0.01,0.01,0.02,0.01,0.03,0.02l0,0l0.06,0.04l0.08,0.11l0,0
							l0.07,0.11c0.01,0.01,0.02,0.03,0.02,0.04l-0.02,0.03l0.1,0.29l0,0.03l0.02,0.04l0.01,0.03c0.01,0.03,0.01,0.06,0.01,0.07
							c0.01,0.1,0.02,0.2,0.02,0.3v148.46c0,1.62-1.18,3.67-2.59,4.48l-85.28,49.21c-0.25,0.14-0.42,0.16-0.52,0.16c0,0,0,0-0.01,0
							c-0.04,0-0.1-0.01-0.21-0.04c-0.03-0.01-0.05-0.03-0.07-0.04l-0.13-0.08l-0.02-0.02l-0.01-0.02l-0.05-0.05
							c-0.13-0.12-0.24-0.28-0.33-0.48c-0.16-0.35-0.24-0.75-0.24-1.15V141.08c0-1.62,1.18-3.67,2.59-4.48l85.28-49.15
							C359.86,87.26,360.17,87.16,360.41,87.16 M360.41,86.16c-0.41,0-0.88,0.13-1.37,0.42l-85.29,49.16
							c-1.7,0.98-3.09,3.38-3.09,5.34v147.71c0,0.57,0.12,1.1,0.32,1.56c0.14,0.31,0.32,0.59,0.57,0.81
							c0.05,0.06,0.11,0.1,0.17,0.15c0.06,0.04,0.12,0.08,0.18,0.12c0.05,0.03,0.1,0.06,0.16,0.09c0.08,0.04,0.17,0.07,0.26,0.09
							c0.13,0.03,0.26,0.05,0.39,0.05c0.01,0,0.03,0,0.04,0c0.3,0,0.64-0.1,0.98-0.29l85.29-49.21c1.7-0.98,3.09-3.37,3.09-5.34
							V88.36c0-0.13-0.01-0.26-0.02-0.38c-0.01-0.1-0.02-0.19-0.05-0.28c0.01-0.02,0-0.04-0.01-0.06c-0.01-0.1-0.04-0.19-0.07-0.27
							c-0.04-0.14-0.1-0.27-0.18-0.39c-0.02-0.06-0.06-0.11-0.1-0.16c-0.03-0.04-0.05-0.08-0.09-0.11c-0.06-0.08-0.12-0.14-0.2-0.2
							c0,0-0.01-0.01-0.02-0.02c-0.08-0.06-0.17-0.11-0.26-0.15C360.9,86.21,360.67,86.16,360.41,86.16L360.41,86.16z"/>
					</g>
				</g>
				<g>
					<g id="XMLID_14_" class="st12">
						<path class="st13" d="M362.13,88.36v148.46c0,1.97-1.39,4.36-3.09,5.34l-85.29,49.21c-0.35,0.2-0.71,0.3-1.02,0.29
							c-0.13,0-0.26-0.02-0.39-0.05c-0.09-0.02-0.18-0.05-0.26-0.09c-0.06-0.03-0.11-0.06-0.16-0.09c-0.06-0.04-0.12-0.08-0.18-0.12
							c-0.06-0.05-0.12-0.09-0.17-0.15c-0.24-0.22-0.43-0.5-0.57-0.81c-0.2-0.46-0.32-0.99-0.32-1.56V141.08
							c0-1.96,1.39-4.36,3.09-5.34l85.29-49.16c0.8-0.46,1.52-0.53,2.07-0.26c0.09,0.04,0.18,0.09,0.26,0.15
							c0.01,0.01,0.02,0.02,0.02,0.02c0.08,0.06,0.14,0.12,0.2,0.2c0.04,0.03,0.06,0.07,0.09,0.11c0.04,0.05,0.08,0.1,0.1,0.16
							c0.08,0.12,0.14,0.25,0.18,0.39c0.03,0.08,0.06,0.17,0.07,0.27c0.01,0.02,0.02,0.04,0.01,0.06c0.03,0.09,0.04,0.18,0.05,0.28
							C362.12,88.1,362.13,88.23,362.13,88.36z"/>
					</g>
				</g>
			</g>
			<g id="XMLID_411_">
				<g id="XMLID_962_">
					<path class="st2" d="M361.12,86.31c-0.56-0.26-1.28-0.19-2.07,0.26l-85.29,49.16c-1.7,0.98-3.09,3.38-3.09,5.34v10.08
						l-3.94-2.31v-10.01c0-1.96,1.38-4.35,3.08-5.33l85.3-49.16c0.88-0.52,1.67-0.53,2.24-0.18
						C357.9,84.5,360.46,85.97,361.12,86.31z"/>
				</g>
				<path id="XMLID_961_" class="st2" d="M362.12,88.34c-0.01-1.95-1.39-2.73-3.08-1.76l-85.29,49.16c-1.7,0.98-3.08,3.37-3.08,5.34
					l0,10.08l91.45-52.7V88.34z"/>
				<g id="XMLID_952_" class="st14">
					<path class="st15" d="M359.04,86.58l-85.28,49.16c-0.84,0.49-1.62,1.33-2.17,2.29l-3.92-2.27c0.55-0.95,1.31-1.78,2.14-2.25
						l85.29-49.16c0.88-0.51,1.67-0.52,2.24-0.18c0.55,0.34,3.11,1.79,3.76,2.14C360.56,86.05,359.83,86.12,359.04,86.58z"/>
				</g>
				<path id="XMLID_951_" class="st16" d="M266.73,148.86l0-10.02c0-1,0.37-2.1,0.94-3.08l3.93,2.26c-0.57,0.97-0.92,2.07-0.92,3.06
					v10.08L266.73,148.86z"/>
			</g>
			<g id="XMLID_399_">
				<path id="XMLID_409_" class="st13" d="M343.55,99.82c-0.96,0.56-1.74,2.21-1.74,3.69c0,1.48,0.78,2.23,1.74,1.68
					c0.96-0.56,1.74-2.21,1.74-3.69C345.29,100.01,344.51,99.26,343.55,99.82z"/>
				<path id="XMLID_401_" class="st13" d="M349.82,96.19c-0.96,0.56-1.74,2.21-1.74,3.69s0.78,2.23,1.74,1.68
					c0.96-0.56,1.74-2.21,1.74-3.69C351.56,96.38,350.79,95.63,349.82,96.19z"/>
				<path id="XMLID_400_" class="st13" d="M356.09,92.56c-0.96,0.56-1.74,2.21-1.74,3.69c0,1.48,0.78,2.23,1.74,1.68
					c0.96-0.56,1.74-2.21,1.74-3.69C357.84,92.76,357.06,92.01,356.09,92.56z"/>
			</g>
			<path id="XMLID_398_" class="st17" d="M271.8,291.37c-0.11-0.07-0.24-0.14-0.38-0.22c-0.28-0.17-0.61-0.35-0.95-0.54l-0.01-0.01
				c-0.17-0.1-0.34-0.2-0.52-0.29c-0.01-0.01-0.03-0.02-0.04-0.02c-0.28-0.16-0.56-0.32-0.81-0.47c-0.26-0.15-0.5-0.28-0.68-0.38
				c-0.18-0.11-0.32-0.18-0.38-0.21c-0.19-0.1-0.37-0.24-0.53-0.42c-0.16-0.17-0.3-0.38-0.42-0.63c-0.22-0.47-0.35-1.03-0.35-1.63
				v-137.7l3.94,2.31v137.63c0.03,0.61,0.14,1.12,0.32,1.56c0.14,0.31,0.32,0.59,0.57,0.81c0.04,0.06,0.1,0.11,0.17,0.15
				C271.75,291.33,271.77,291.35,271.8,291.37z"/>
		</g>
		<g id="XMLID_2042_">
			<g id="XMLID_396_">
				<path id="XMLID_2053_" class="st2" d="M278.24,159.53c0-0.18,0.05-0.38,0.16-0.58l2.22-4.59c0.04-0.07,0.07-0.11,0.1-0.14
					c0.03-0.02,0.05-0.04,0.06-0.04c0.07-0.04,0.12-0.03,0.17,0.01c0.05,0.05,0.07,0.12,0.07,0.23v1.54c0,0.2-0.01,0.35-0.05,0.48
					c-0.03,0.12-0.08,0.26-0.16,0.42l-1.17,2.42l1.17,1.07c0.08,0.07,0.13,0.15,0.16,0.24c0.03,0.09,0.05,0.23,0.05,0.42v1.54
					c0,0.1-0.02,0.21-0.07,0.31c-0.05,0.1-0.11,0.17-0.17,0.21c-0.01,0-0.03,0.01-0.06,0.02c-0.03,0.01-0.06,0.01-0.1-0.02
					l-2.22-2.03c-0.1-0.08-0.16-0.21-0.16-0.39V159.53z"/>
				<path id="XMLID_2055_" class="st2" d="M286.35,148.03c0.04-0.15,0.09-0.3,0.17-0.45c0.08-0.15,0.18-0.27,0.33-0.35l0.83-0.48
					c0.07-0.04,0.13-0.04,0.17,0.01c0.05,0.05,0.07,0.12,0.07,0.23c0,0.05-0.01,0.1-0.02,0.17l-3.8,16.2
					c-0.03,0.13-0.08,0.28-0.16,0.44c-0.08,0.16-0.19,0.28-0.34,0.37l-0.8,0.46c-0.07,0.04-0.13,0.04-0.17-0.01
					c-0.05-0.05-0.07-0.12-0.07-0.23c0-0.05,0.01-0.1,0.02-0.17L286.35,148.03z"/>
				<path id="XMLID_2057_" class="st2" d="M292.23,152.6c0,0.18-0.05,0.38-0.16,0.58l-2.22,4.59c-0.04,0.07-0.07,0.11-0.1,0.14
					c-0.03,0.02-0.05,0.04-0.06,0.04c-0.07,0.04-0.13,0.04-0.17-0.01c-0.05-0.05-0.07-0.12-0.07-0.23v-1.54
					c0-0.2,0.01-0.36,0.04-0.48c0.03-0.12,0.08-0.26,0.16-0.42l1.17-2.42l-1.17-1.07c-0.07-0.07-0.13-0.15-0.16-0.24
					c-0.03-0.09-0.04-0.23-0.04-0.42v-1.54c0-0.1,0.02-0.21,0.07-0.31c0.05-0.1,0.11-0.17,0.17-0.21c0.01,0,0.03-0.01,0.06-0.02
					c0.03-0.01,0.06-0.01,0.1,0.02l2.22,2.03c0.1,0.08,0.16,0.21,0.16,0.39V152.6z"/>
				<path id="XMLID_2060_" class="st2" d="M298.39,151.53c0.08-0.05,0.15-0.04,0.21,0.01c0.06,0.06,0.09,0.15,0.09,0.28v1.7
					c0,0.13-0.03,0.25-0.09,0.38c-0.06,0.13-0.13,0.21-0.21,0.26l-1.05,0.6c-0.08,0.05-0.15,0.04-0.21-0.01
					c-0.06-0.06-0.09-0.15-0.09-0.28v-1.7c0-0.13,0.03-0.25,0.09-0.38c0.06-0.13,0.13-0.21,0.21-0.26L298.39,151.53z"/>
				<path id="XMLID_2063_" class="st2" d="M301.89,149.52c0.08-0.05,0.15-0.04,0.21,0.01c0.06,0.06,0.09,0.15,0.09,0.28v1.7
					c0,0.13-0.03,0.25-0.09,0.38c-0.06,0.13-0.13,0.21-0.21,0.26l-1.05,0.6c-0.08,0.05-0.15,0.04-0.21-0.01
					c-0.06-0.06-0.09-0.15-0.09-0.28v-1.7c0-0.13,0.03-0.25,0.09-0.38c0.06-0.13,0.13-0.21,0.21-0.26L301.89,149.52z"/>
				<path id="XMLID_2068_" class="st2" d="M305.39,147.5c0.08-0.05,0.15-0.04,0.21,0.01c0.06,0.06,0.09,0.15,0.09,0.28v1.7
					c0,0.13-0.03,0.25-0.09,0.38c-0.06,0.13-0.13,0.21-0.21,0.26l-1.05,0.6c-0.08,0.05-0.15,0.04-0.21-0.01
					c-0.06-0.06-0.09-0.15-0.09-0.28v-1.7c0-0.13,0.03-0.25,0.09-0.38c0.06-0.13,0.13-0.21,0.21-0.26L305.39,147.5z"/>
			</g>
			<path id="XMLID_959_" class="st2" d="M279.18,171.9l51.24-29.59c0.6-0.35,1.1-0.1,1.1,0.55s-0.49,1.47-1.1,1.82l-51.24,29.59
				c-0.6,0.35-1.1,0.1-1.1-0.55C278.08,173.07,278.57,172.25,279.18,171.9z"/>
			<path id="XMLID_1876_" class="st1" d="M295.62,190.89l51.24-29.59c0.6-0.35,1.1-0.1,1.1,0.55c0,0.66-0.49,1.47-1.1,1.82
				l-51.24,29.59c-0.6,0.35-1.1,0.1-1.1-0.55C294.52,192.05,295.01,191.24,295.62,190.89z"/>
			<path id="XMLID_1877_" class="st1" d="M295.62,200.38l24.53-14.15c0.61-0.35,1.1-0.1,1.1,0.55c0,0.66-0.49,1.47-1.1,1.82
				l-24.53,14.15c-0.6,0.35-1.1,0.1-1.1-0.55C294.52,201.55,295.01,200.73,295.62,200.38z"/>
			<path id="XMLID_1878_" class="st1" d="M295.62,209.87l24.53-14.15c0.61-0.35,1.1-0.1,1.1,0.55s-0.49,1.47-1.1,1.82l-24.53,14.15
				c-0.6,0.35-1.1,0.1-1.1-0.55C294.52,211.04,295.01,210.22,295.62,209.87z"/>
			<path id="XMLID_964_" class="st2" d="M334.67,139.87l20.42-11.83c0.6-0.35,1.1-0.1,1.1,0.55c0,0.66-0.49,1.47-1.1,1.82
				l-20.42,11.83c-0.6,0.35-1.1,0.1-1.1-0.55C333.57,141.03,334.06,140.22,334.67,139.87z"/>
			<path id="XMLID_2051_" class="st2" d="M279.18,276.31l51.24-29.59c0.6-0.35,1.1-0.1,1.1,0.55c0,0.66-0.49,1.47-1.1,1.82
				l-51.24,29.59c-0.6,0.35-1.1,0.1-1.1-0.55C278.08,277.48,278.57,276.66,279.18,276.31z"/>
			<path id="XMLID_2050_" class="st2" d="M334.67,244.27l20.42-11.83c0.6-0.35,1.1-0.1,1.1,0.55s-0.49,1.47-1.1,1.82l-20.42,11.83
				c-0.6,0.35-1.1,0.1-1.1-0.55C333.57,245.44,334.06,244.62,334.67,244.27z"/>
			<path id="XMLID_1891_" class="st2" d="M334.67,215.85l20.42-11.83c0.6-0.35,1.1-0.1,1.1,0.55c0,0.66-0.49,1.47-1.1,1.82
				l-20.42,11.83c-0.6,0.35-1.1,0.1-1.1-0.55C333.57,217.01,334.06,216.2,334.67,215.85z"/>
			<path id="XMLID_1893_" class="st2" d="M334.67,225.34l20.42-11.83c0.6-0.35,1.1-0.1,1.1,0.55s-0.49,1.47-1.1,1.82l-20.42,11.83
				c-0.6,0.35-1.1,0.1-1.1-0.55C333.57,226.5,334.06,225.69,334.67,225.34z"/>
			<path id="XMLID_1153_" class="st19" d="M279.18,266.83l51.24-29.59c0.6-0.35,1.1-0.1,1.1,0.55s-0.49,1.47-1.1,1.82l-51.24,29.59
				c-0.6,0.35-1.1,0.1-1.1-0.55C278.08,267.99,278.57,267.18,279.18,266.83z"/>
			<path id="XMLID_1892_" class="st2" d="M317.26,225.87l11.47-6.62c0.61-0.35,1.1-0.1,1.1,0.55c0,0.66-0.49,1.47-1.1,1.82
				l-11.47,6.62c-0.61,0.35-1.1,0.1-1.1-0.55C316.16,227.03,316.65,226.22,317.26,225.87z"/>
			<g id="XMLID_1135_">
				<path id="XMLID_1119_" class="st2" d="M279.18,181.42l29.89-17.27c0.6-0.35,1.1-0.1,1.1,0.55s-0.49,1.47-1.1,1.82l-29.89,17.27
					c-0.6,0.35-1.1,0.1-1.1-0.55C278.08,182.58,278.57,181.77,279.18,181.42z"/>
				<path id="XMLID_960_" class="st20" d="M279.18,181.42l29.89-17.27c0.6-0.35,1.1-0.1,1.1,0.55s-0.49,1.47-1.1,1.82l-29.89,17.27
					c-0.6,0.35-1.1,0.1-1.1-0.55C278.08,182.58,278.57,181.77,279.18,181.42z"/>
			</g>
			<g id="XMLID_1154_">
				<path id="XMLID_1156_" class="st2" d="M279.18,190.89l10.14-5.86c0.61-0.35,1.1-0.1,1.1,0.55c0,0.66-0.49,1.47-1.1,1.82
					l-10.14,5.86c-0.6,0.35-1.1,0.1-1.1-0.55C278.08,192.06,278.57,191.24,279.18,190.89z"/>
				<path id="XMLID_1155_" class="st20" d="M279.18,190.89l10.14-5.86c0.61-0.35,1.1-0.1,1.1,0.55c0,0.66-0.49,1.47-1.1,1.82
					l-10.14,5.86c-0.6,0.35-1.1,0.1-1.1-0.55C278.08,192.06,278.57,191.24,279.18,190.89z"/>
			</g>
			<g id="XMLID_1166_">
				<path id="XMLID_1168_" class="st2" d="M279.18,200.39l10.14-5.86c0.61-0.35,1.1-0.1,1.1,0.55s-0.49,1.47-1.1,1.82l-10.14,5.86
					c-0.6,0.35-1.1,0.1-1.1-0.55C278.08,201.55,278.57,200.73,279.18,200.39z"/>
				<path id="XMLID_1167_" class="st20" d="M279.18,200.39l10.14-5.86c0.61-0.35,1.1-0.1,1.1,0.55s-0.49,1.47-1.1,1.82l-10.14,5.86
					c-0.6,0.35-1.1,0.1-1.1-0.55C278.08,201.55,278.57,200.73,279.18,200.39z"/>
			</g>
			<g id="XMLID_1349_">
				<path id="XMLID_1766_" class="st2" d="M279.18,209.88l10.14-5.86c0.61-0.35,1.1-0.1,1.1,0.55c0,0.66-0.49,1.47-1.1,1.82
					l-10.14,5.86c-0.6,0.35-1.1,0.1-1.1-0.55C278.08,211.04,278.57,210.23,279.18,209.88z"/>
				<path id="XMLID_1765_" class="st20" d="M279.18,209.88l10.14-5.86c0.61-0.35,1.1-0.1,1.1,0.55c0,0.66-0.49,1.47-1.1,1.82
					l-10.14,5.86c-0.6,0.35-1.1,0.1-1.1-0.55C278.08,211.04,278.57,210.23,279.18,209.88z"/>
			</g>
			<g id="XMLID_1805_">
				<path id="XMLID_1809_" class="st2" d="M279.18,219.37l10.14-5.86c0.61-0.35,1.1-0.1,1.1,0.55s-0.49,1.47-1.1,1.82l-10.14,5.86
					c-0.6,0.35-1.1,0.1-1.1-0.55C278.08,220.53,278.57,219.72,279.18,219.37z"/>
				<path id="XMLID_1806_" class="st20" d="M279.18,219.37l10.14-5.86c0.61-0.35,1.1-0.1,1.1,0.55s-0.49,1.47-1.1,1.82l-10.14,5.86
					c-0.6,0.35-1.1,0.1-1.1-0.55C278.08,220.53,278.57,219.72,279.18,219.37z"/>
			</g>
			<g id="XMLID_1126_">
				<path id="XMLID_965_" class="st2" d="M313.31,161.7l13-7.48c0.6-0.35,1.1-0.1,1.1,0.55s-0.49,1.47-1.1,1.82l-13,7.48
					c-0.6,0.35-1.1,0.1-1.1-0.55C312.22,162.86,312.71,162.05,313.31,161.7z"/>
				<path id="XMLID_1125_" class="st20" d="M313.31,161.7l13-7.48c0.6-0.35,1.1-0.1,1.1,0.55s-0.49,1.47-1.1,1.82l-13,7.48
					c-0.6,0.35-1.1,0.1-1.1-0.55C312.22,162.86,312.71,162.05,313.31,161.7z"/>
			</g>
			<g id="XMLID_1888_">
				<path id="XMLID_1890_" class="st19" d="M307.95,212.23l29.89-17.27c0.61-0.35,1.1-0.1,1.1,0.55c0,0.66-0.49,1.47-1.1,1.82
					l-29.89,17.27c-0.61,0.35-1.1,0.1-1.1-0.55C306.85,213.4,307.34,212.58,307.95,212.23z"/>
			</g>
			<g id="XMLID_1886_">
				<path id="XMLID_1889_" class="st19" d="M325.19,211.81l29.89-17.27c0.6-0.35,1.1-0.1,1.1,0.55c0,0.66-0.49,1.47-1.1,1.82
					l-29.89,17.27c-0.61,0.35-1.1,0.1-1.1-0.55C324.1,212.97,324.59,212.16,325.19,211.81z"/>
			</g>
			<g id="XMLID_1881_">
				<path id="XMLID_1887_" class="st19" d="M342.09,192.51l13-7.48c0.61-0.35,1.1-0.1,1.1,0.55c0,0.66-0.49,1.47-1.1,1.82l-13,7.48
					c-0.6,0.35-1.1,0.1-1.1-0.55C340.99,193.68,341.48,192.86,342.09,192.51z"/>
			</g>
			<g id="XMLID_1160_">
				<path id="XMLID_1165_" class="st2" d="M295.62,181.4l29.89-17.27c0.61-0.35,1.1-0.1,1.1,0.55s-0.49,1.47-1.1,1.82l-29.89,17.27
					c-0.6,0.35-1.1,0.1-1.1-0.55C294.52,182.57,295.01,181.75,295.62,181.4z"/>
				<path id="XMLID_1164_" class="st20" d="M295.62,181.4l29.89-17.27c0.61-0.35,1.1-0.1,1.1,0.55s-0.49,1.47-1.1,1.82l-29.89,17.27
					c-0.6,0.35-1.1,0.1-1.1-0.55C294.52,182.57,295.01,181.75,295.62,181.4z"/>
			</g>
			<g id="XMLID_1157_">
				<path id="XMLID_1159_" class="st2" d="M329.75,161.68l13-7.48c0.6-0.35,1.1-0.1,1.1,0.55c0,0.66-0.49,1.47-1.1,1.82l-13,7.48
					c-0.6,0.35-1.1,0.1-1.1-0.55C328.66,162.84,329.15,162.03,329.75,161.68z"/>
				<path id="XMLID_1158_" class="st20" d="M329.75,161.68l13-7.48c0.6-0.35,1.1-0.1,1.1,0.55c0,0.66-0.49,1.47-1.1,1.82l-13,7.48
					c-0.6,0.35-1.1,0.1-1.1-0.55C328.66,162.84,329.15,162.03,329.75,161.68z"/>
			</g>
		</g>
	</g>
</g>
<g id="Speech_Bubbles">
	<g id="XMLID_405_">
		<g id="XMLID_2247_">
			<g id="XMLID_2238_">
				<path id="XMLID_2266_" class="st2" d="M425.21,95.43l0-11.39l-9.61-0.84c-0.15-0.01-0.29,0.02-0.4,0.08
					c-0.37,0.2-9.47,5.41-9.59,5.48c-0.36,0.21-0.48,0.73-0.16,1.08l10.19,11.05L425.21,95.43z"/>
				<path id="XMLID_2239_" class="st2" d="M415.64,100.9l-10.19-11.05c-0.44-0.47-0.06-1.23,0.58-1.18l9.61,0.84V100.9z"/>
				<path id="XMLID_2287_" class="st2" d="M425.2,84.04l-9.56,5.48l-9.61-0.84c-0.12-0.01-0.23,0.01-0.33,0.05
					c0.77-0.45,9.15-5.25,9.5-5.44c0.11-0.06,0.25-0.1,0.4-0.08L425.2,84.04z"/>
				<path id="XMLID_2286_" class="st10" d="M425.2,84.04l-9.56,5.48l-9.61-0.84c-0.12-0.01-0.23,0.01-0.33,0.05
					c0.77-0.45,9.15-5.25,9.5-5.44c0.11-0.06,0.25-0.1,0.4-0.08L425.2,84.04z"/>
			</g>
			<g id="XMLID_2191_">
				<g id="XMLID_2252_">
					<g id="XMLID_2258_">
						<g id="XMLID_2259_">
							<path id="XMLID_2265_" class="st2" d="M415.66,76.67c0-2.21,1.55-4.9,3.46-6l2.82-1.63c1.91-1.11,5.02-1.11,6.93,0
								l30.07,17.36c1.91,1.11,3.47,3.79,3.47,6v34.74c0,2.21-1.55,4.9-3.47,6l-2.82,1.63c-1.91,1.1-5.02,1.1-6.93,0l-8.88-5.13
								l-11.54-6.67l-9.65-5.57c-1.91-1.1-3.46-3.79-3.46-6L415.66,76.67z"/>
							<path id="XMLID_2264_" class="st8" d="M462.41,127.14c0,2.21-1.55,4.9-3.46,6l-2.82,1.63c-1.73,1-4.42,1.09-6.34,0.28
								c1.63,0.62,2.87-0.3,2.87-2.28l0-34.74c0-1.1-0.39-2.33-1.01-3.41l9.75-5.63c0.63,1.09,1.01,2.31,1.01,3.41V127.14z"/>
							<path id="XMLID_2263_" class="st10" d="M415.77,75.68c0.4-1.47,1.75-1.94,3.35-1.02l30.08,17.37
								c0.95,0.55,1.83,1.49,2.44,2.59l9.75-5.62c-0.63-1.1-1.49-2.04-2.44-2.59l-30.06-17.37c-1.92-1.1-5.03-1.1-6.93,0l-2.83,1.63
								C417.48,71.61,416.11,73.71,415.77,75.68z"/>
						</g>
					</g>
				</g>
			</g>
		</g>
		<g id="XMLID_2551_">
			<g id="XMLID_2569_">
				<polygon id="XMLID_2575_" class="st13" points="434.16,89.35 422.71,87.75 424.31,108.88 434.16,121.67 				"/>
				<polygon id="XMLID_2571_" class="st11" points="434.16,89.35 445.61,100.98 444.01,120.25 434.16,121.67 				"/>
			</g>
			<path id="XMLID_2552_" class="st9" d="M438.87,116.84l2.62,1.51l-7.32-25.78l-7.32,17.34l2.62,1.51l1.58-3.76l6.23,3.6
				L438.87,116.84z M432.02,105.4l2.16-5.15l2.16,7.64L432.02,105.4z"/>
		</g>
	</g>
	<g id="XMLID_407_">
		<g id="XMLID_2268_">
			<g id="XMLID_2293_">
				<path id="XMLID_2299_" class="st2" d="M425.21,160.27l0-11.39l-9.61-0.84c-0.15-0.01-0.29,0.02-0.4,0.08
					c-0.37,0.2-9.47,5.41-9.59,5.48c-0.36,0.21-0.48,0.73-0.16,1.08l10.19,11.05L425.21,160.27z"/>
				<path id="XMLID_2298_" class="st21" d="M415.64,165.74l-10.19-11.05c-0.44-0.47-0.06-1.23,0.58-1.18l9.61,0.84V165.74z"/>
				<path id="XMLID_2297_" class="st2" d="M425.2,148.88l-9.56,5.48l-9.61-0.84c-0.12-0.01-0.23,0.01-0.33,0.05
					c0.77-0.45,9.15-5.25,9.5-5.44c0.11-0.06,0.25-0.1,0.4-0.08L425.2,148.88z"/>
				<path id="XMLID_2296_" class="st19" d="M425.2,148.88l-9.56,5.48l-9.61-0.84c-0.12-0.01-0.23,0.01-0.33,0.05
					c0.77-0.45,9.15-5.25,9.5-5.44c0.11-0.06,0.25-0.1,0.4-0.08L425.2,148.88z"/>
			</g>
			<g id="XMLID_2270_">
				<g id="XMLID_2272_">
					<g id="XMLID_2273_">
						<g id="XMLID_2280_">
							<path id="XMLID_2291_" class="st21" d="M415.66,141.51c0-2.21,1.55-4.9,3.46-6l2.82-1.63c1.91-1.1,5.02-1.1,6.93,0
								l30.07,17.36c1.91,1.11,3.47,3.79,3.47,6v34.74c0,2.21-1.55,4.9-3.47,6l-2.82,1.63c-1.91,1.1-5.02,1.1-6.93,0l-8.88-5.13
								l-11.54-6.67l-9.65-5.57c-1.91-1.1-3.46-3.79-3.46-6L415.66,141.51z"/>
							<path id="XMLID_2289_" class="st1" d="M462.41,191.98c0,2.21-1.55,4.9-3.46,6l-2.82,1.63c-1.73,1-4.42,1.09-6.34,0.28
								c1.63,0.62,2.87-0.3,2.87-2.28l0-34.74c0-1.1-0.39-2.33-1.01-3.41l9.75-5.63c0.63,1.09,1.01,2.31,1.01,3.41V191.98z"/>
							<path id="XMLID_2288_" class="st19" d="M415.77,140.52c0.4-1.47,1.75-1.94,3.35-1.02l30.08,17.37
								c0.95,0.55,1.83,1.49,2.44,2.59l9.75-5.63c-0.63-1.1-1.49-2.04-2.44-2.59l-30.06-17.37c-1.92-1.1-5.03-1.1-6.93,0l-2.83,1.63
								C417.48,136.45,416.11,138.55,415.77,140.52z"/>
						</g>
					</g>
				</g>
			</g>
		</g>
	</g>
	<g id="XMLID_410_">
		<g id="XMLID_2300_">
			<g id="XMLID_2310_">
				<path id="XMLID_2314_" class="st2" d="M425.21,225.12l0-11.39l-9.61-0.84c-0.15-0.01-0.29,0.02-0.4,0.08
					c-0.37,0.2-9.47,5.41-9.59,5.48c-0.36,0.21-0.48,0.73-0.16,1.08l10.19,11.05L425.21,225.12z"/>
				<path id="XMLID_2313_" class="st11" d="M415.64,230.58l-10.19-11.05c-0.44-0.47-0.06-1.23,0.58-1.18l9.61,0.84V230.58z"/>
				<path id="XMLID_2312_" class="st2" d="M425.2,213.73l-9.56,5.48l-9.61-0.84c-0.12-0.01-0.23,0.01-0.33,0.05
					c0.77-0.45,9.15-5.25,9.5-5.44c0.11-0.06,0.25-0.1,0.4-0.08L425.2,213.73z"/>
				<path id="XMLID_2311_" class="st13" d="M425.2,213.73l-9.56,5.48l-9.61-0.84c-0.12-0.01-0.23,0.01-0.33,0.05
					c0.77-0.45,9.15-5.25,9.5-5.44c0.11-0.06,0.25-0.1,0.4-0.08L425.2,213.73z"/>
			</g>
			<g id="XMLID_2301_">
				<g id="XMLID_2303_">
					<g id="XMLID_2305_">
						<g id="XMLID_2306_">
							<path id="XMLID_2309_" class="st11" d="M415.66,206.35c0-2.21,1.55-4.9,3.46-6l2.82-1.63c1.91-1.1,5.02-1.1,6.93,0
								l30.07,17.36c1.91,1.11,3.47,3.79,3.47,6v34.74c0,2.21-1.55,4.9-3.47,6l-2.82,1.63c-1.91,1.1-5.02,1.1-6.93,0l-8.88-5.13
								l-11.54-6.67l-9.65-5.57c-1.91-1.1-3.46-3.79-3.46-6L415.66,206.35z"/>
							<path id="XMLID_2308_" class="st18" d="M462.41,256.82c0,2.21-1.55,4.9-3.46,6l-2.82,1.63c-1.73,1-4.42,1.09-6.34,0.28
								c1.63,0.62,2.87-0.3,2.87-2.28l0-34.74c0-1.1-0.39-2.33-1.01-3.41l9.75-5.63c0.63,1.09,1.01,2.31,1.01,3.41V256.82z"/>
							<path id="XMLID_2307_" class="st13" d="M415.77,205.37c0.4-1.47,1.75-1.94,3.35-1.02l30.08,17.37
								c0.95,0.55,1.83,1.49,2.44,2.59l9.75-5.63c-0.63-1.1-1.49-2.04-2.44-2.59l-30.06-17.37c-1.92-1.1-5.03-1.1-6.93,0l-2.83,1.63
								C417.48,201.29,416.11,203.4,415.77,205.37z"/>
						</g>
					</g>
				</g>
			</g>
		</g>
		<g id="XMLID_2105_">
			<g id="XMLID_2451_">
				<path id="XMLID_2648_" class="st2" d="M440.85,232.89c0.71-3.59,0.42-6.91-1-8.79c-0.71-0.95-1.65-1.44-2.72-1.44
					c-0.08,0-0.17,0-0.25,0.01c-0.86,0.06-1.76,0.42-2.65,1.04c-2.03-3.78-4.02-6.1-5.43-6.1c-0.07,0-0.14,0.01-0.2,0.02
					c-0.37,0.06-0.67,0.29-0.91,0.68c-0.68,1.15-0.72,3.63-0.2,6.91c-1.57-0.3-2.88-0.24-3.74,0.27c-0.76,0.44-1.16,1.19-1.16,2.18
					c0,2.17,1.91,5.15,4.88,7.99c-0.71,3.6-0.42,6.91,1,8.79c0.33,0.44,0.71,0.78,1.13,1.02c0.49,0.28,1.02,0.42,1.59,0.42
					c0.34,0,0.69-0.05,1.06-0.15c0.63-0.17,1.27-0.51,1.91-0.96c1.61,3.02,3.22,5.18,4.51,5.92c0.35,0.2,0.67,0.3,0.97,0.3
					c0.07,0,0.14-0.01,0.21-0.02c0.37-0.06,0.67-0.29,0.91-0.68c0.69-1.15,0.72-3.65,0.2-6.94c0.57,0.1,1.11,0.16,1.59,0.16
					c0.82,0,1.52-0.15,2.05-0.46c0.76-0.44,1.16-1.19,1.16-2.18C445.73,238.71,443.82,235.73,440.85,232.89z M437.42,238.68
					c-0.35,0.63-0.72,1.21-1.1,1.75c-0.66-0.32-1.36-0.68-2.1-1.11c-0.74-0.43-1.45-0.87-2.12-1.33c-0.39-1-0.77-2.06-1.15-3.16
					c-0.37-1.08-0.69-2.12-0.98-3.11c0.28-0.62,0.58-1.24,0.92-1.86c0.35-0.63,0.72-1.21,1.09-1.75c0.67,0.32,1.36,0.68,2.11,1.11
					c0.78,0.45,1.52,0.92,2.23,1.4c0.39,1,0.77,2.04,1.14,3.15c0.34,1.02,0.65,2,0.93,2.94
					C438.11,237.37,437.78,238.02,437.42,238.68z M438.4,233.57c-0.22-0.66-0.45-1.31-0.69-1.94c0.67,0.51,1.3,1.02,1.89,1.54
					c-0.18,0.69-0.39,1.4-0.65,2.11C438.78,234.72,438.6,234.15,438.4,233.57z M434.22,227.93c-0.51-0.29-1.01-0.56-1.5-0.81
					c0.47-0.58,0.94-1.08,1.42-1.5c0.47,0.95,0.95,2,1.43,3.13C435.13,228.47,434.68,228.19,434.22,227.93z M429.97,228.81
					c-0.18,0.33-0.35,0.66-0.52,1c-0.27-1.04-0.5-2.03-0.68-2.95c0.6,0.17,1.25,0.4,1.96,0.69
					C430.47,227.95,430.21,228.37,429.97,228.81z M430.01,235.03c0.23,0.67,0.46,1.33,0.7,1.98c-0.72-0.54-1.39-1.08-2.01-1.63
					c0.19-0.74,0.42-1.49,0.7-2.25C429.59,233.75,429.79,234.38,430.01,235.03z M434.09,240.61c0.5,0.29,1,0.55,1.49,0.8
					c-0.45,0.55-0.9,1.04-1.36,1.45c-0.45-0.92-0.91-1.93-1.37-3.01C433.26,240.12,433.67,240.37,434.09,240.61z M438.34,239.73
					c0.2-0.37,0.39-0.74,0.58-1.11c0.29,1.1,0.53,2.14,0.72,3.09c-0.63-0.17-1.31-0.41-2.06-0.71
					C437.84,240.59,438.1,240.17,438.34,239.73z M436.98,229.71c-0.68-1.7-1.38-3.28-2.08-4.69c0.56-0.39,1.12-0.69,1.67-0.84
					c0.3-0.08,0.59-0.12,0.86-0.12c0.42,0,0.81,0.1,1.14,0.29c0.26,0.15,0.49,0.35,0.68,0.61c0.96,1.27,1.21,3.92,0.62,7.03
					C438.98,231.2,438.01,230.44,436.98,229.71z M431.45,226.52c-1.04-0.46-2.02-0.82-2.93-1.07c-0.5-3.1-0.44-5.23,0.06-6.06
					c0.13-0.21,0.28-0.33,0.45-0.36c0.03,0,0.06-0.01,0.09-0.01c0.16,0,0.34,0.06,0.54,0.18c0.95,0.55,2.32,2.33,3.81,5.11
					C432.78,224.9,432.1,225.65,431.45,226.52z M428.83,231.19c-0.45,1.09-0.82,2.19-1.1,3.28c-2.57-2.48-4.09-4.88-4.09-6.35
					c0-0.6,0.26-1.05,0.76-1.34c0.38-0.22,0.95-0.36,1.7-0.36c0.47,0,1.02,0.06,1.64,0.18C428,228.02,428.37,229.56,428.83,231.19z
					 M431.44,238.91c0.66,1.64,1.34,3.17,2.03,4.56c-0.83,0.6-1.64,0.95-2.4,1c-0.83,0.07-1.53-0.25-2.02-0.9
					c-0.96-1.27-1.21-3.92-0.62-7.03C429.37,237.37,430.37,238.16,431.44,238.91z M436.86,242.02c1.07,0.48,2.09,0.85,3.03,1.1
					c0.5,3.11,0.44,5.25-0.05,6.08c-0.13,0.21-0.28,0.33-0.45,0.36c-0.91,0.16-2.62-1.87-4.49-5.39
					C435.57,243.59,436.23,242.87,436.86,242.02z M439.54,237.22c0.43-1.05,0.78-2.11,1.05-3.15c2.57,2.48,4.09,4.88,4.09,6.35
					c0,0.6-0.26,1.05-0.76,1.34c-0.61,0.35-1.7,0.49-3.24,0.2C440.4,240.49,440.01,238.9,439.54,237.22z"/>
				<g id="XMLID_2452_">
					<path id="XMLID_2453_" class="st2" d="M436.19,235.44c0,1.5-0.91,2.18-2.03,1.54c-1.12-0.65-2.03-2.39-2.03-3.88
						s0.91-2.18,2.03-1.54C435.28,232.21,436.19,233.95,436.19,235.44z"/>
				</g>
			</g>
			<g id="XMLID_2073_" class="st22">
				<path id="XMLID_2079_" class="st15" d="M440.85,232.89c0.71-3.59,0.42-6.91-1-8.79c-0.71-0.95-1.65-1.44-2.72-1.44
					c-0.08,0-0.17,0-0.25,0.01c-0.86,0.06-1.76,0.42-2.65,1.04c-2.03-3.78-4.02-6.1-5.43-6.1c-0.07,0-0.14,0.01-0.2,0.02
					c-0.37,0.06-0.67,0.29-0.91,0.68c-0.68,1.15-0.72,3.63-0.2,6.91c-1.57-0.3-2.88-0.24-3.74,0.27c-0.76,0.44-1.16,1.19-1.16,2.18
					c0,2.17,1.91,5.15,4.88,7.99c-0.71,3.6-0.42,6.91,1,8.79c0.33,0.44,0.71,0.78,1.13,1.02c0.49,0.28,1.02,0.42,1.59,0.42
					c0.34,0,0.69-0.05,1.06-0.15c0.63-0.17,1.27-0.51,1.91-0.96c1.61,3.02,3.22,5.18,4.51,5.92c0.35,0.2,0.67,0.3,0.97,0.3
					c0.07,0,0.14-0.01,0.21-0.02c0.37-0.06,0.67-0.29,0.91-0.68c0.69-1.15,0.72-3.65,0.2-6.94c0.57,0.1,1.11,0.16,1.59,0.16
					c0.82,0,1.52-0.15,2.05-0.46c0.76-0.44,1.16-1.19,1.16-2.18C445.73,238.71,443.82,235.73,440.85,232.89z M437.42,238.68
					c-0.35,0.63-0.72,1.21-1.1,1.75c-0.66-0.32-1.36-0.68-2.1-1.11c-0.74-0.43-1.45-0.87-2.12-1.33c-0.39-1-0.77-2.06-1.15-3.16
					c-0.37-1.08-0.69-2.12-0.98-3.11c0.28-0.62,0.58-1.24,0.92-1.86c0.35-0.63,0.72-1.21,1.09-1.75c0.67,0.32,1.36,0.68,2.11,1.11
					c0.78,0.45,1.52,0.92,2.23,1.4c0.39,1,0.77,2.04,1.14,3.15c0.34,1.02,0.65,2,0.93,2.94
					C438.11,237.37,437.78,238.02,437.42,238.68z M438.4,233.57c-0.22-0.66-0.45-1.31-0.69-1.94c0.67,0.51,1.3,1.02,1.89,1.54
					c-0.18,0.69-0.39,1.4-0.65,2.11C438.78,234.72,438.6,234.15,438.4,233.57z M434.22,227.93c-0.51-0.29-1.01-0.56-1.5-0.81
					c0.47-0.58,0.94-1.08,1.42-1.5c0.47,0.95,0.95,2,1.43,3.13C435.13,228.47,434.68,228.19,434.22,227.93z M429.97,228.81
					c-0.18,0.33-0.35,0.66-0.52,1c-0.27-1.04-0.5-2.03-0.68-2.95c0.6,0.17,1.25,0.4,1.96,0.69
					C430.47,227.95,430.21,228.37,429.97,228.81z M430.01,235.03c0.23,0.67,0.46,1.33,0.7,1.98c-0.72-0.54-1.39-1.08-2.01-1.63
					c0.19-0.74,0.42-1.49,0.7-2.25C429.59,233.75,429.79,234.38,430.01,235.03z M434.09,240.61c0.5,0.29,1,0.55,1.49,0.8
					c-0.45,0.55-0.9,1.04-1.36,1.45c-0.45-0.92-0.91-1.93-1.37-3.01C433.26,240.12,433.67,240.37,434.09,240.61z M438.34,239.73
					c0.2-0.37,0.39-0.74,0.58-1.11c0.29,1.1,0.53,2.14,0.72,3.09c-0.63-0.17-1.31-0.41-2.06-0.71
					C437.84,240.59,438.1,240.17,438.34,239.73z M436.98,229.71c-0.68-1.7-1.38-3.28-2.08-4.69c0.56-0.39,1.12-0.69,1.67-0.84
					c0.3-0.08,0.59-0.12,0.86-0.12c0.42,0,0.81,0.1,1.14,0.29c0.26,0.15,0.49,0.35,0.68,0.61c0.96,1.27,1.21,3.92,0.62,7.03
					C438.98,231.2,438.01,230.44,436.98,229.71z M431.45,226.52c-1.04-0.46-2.02-0.82-2.93-1.07c-0.5-3.1-0.44-5.23,0.06-6.06
					c0.13-0.21,0.28-0.33,0.45-0.36c0.03,0,0.06-0.01,0.09-0.01c0.16,0,0.34,0.06,0.54,0.18c0.95,0.55,2.32,2.33,3.81,5.11
					C432.78,224.9,432.1,225.65,431.45,226.52z M428.83,231.19c-0.45,1.09-0.82,2.19-1.1,3.28c-2.57-2.48-4.09-4.88-4.09-6.35
					c0-0.6,0.26-1.05,0.76-1.34c0.38-0.22,0.95-0.36,1.7-0.36c0.47,0,1.02,0.06,1.64,0.18C428,228.02,428.37,229.56,428.83,231.19z
					 M431.44,238.91c0.66,1.64,1.34,3.17,2.03,4.56c-0.83,0.6-1.64,0.95-2.4,1c-0.83,0.07-1.53-0.25-2.02-0.9
					c-0.96-1.27-1.21-3.92-0.62-7.03C429.37,237.37,430.37,238.16,431.44,238.91z M436.86,242.02c1.07,0.48,2.09,0.85,3.03,1.1
					c0.5,3.11,0.44,5.25-0.05,6.08c-0.13,0.21-0.28,0.33-0.45,0.36c-0.91,0.16-2.62-1.87-4.49-5.39
					C435.57,243.59,436.23,242.87,436.86,242.02z M439.54,237.22c0.43-1.05,0.78-2.11,1.05-3.15c2.57,2.48,4.09,4.88,4.09,6.35
					c0,0.6-0.26,1.05-0.76,1.34c-0.61,0.35-1.7,0.49-3.24,0.2C440.4,240.49,440.01,238.9,439.54,237.22z"/>
				<g id="XMLID_2077_">
					<path id="XMLID_2078_" class="st15" d="M436.19,235.44c0,1.5-0.91,2.18-2.03,1.54c-1.12-0.65-2.03-2.39-2.03-3.88
						s0.91-2.18,2.03-1.54C435.28,232.21,436.19,233.95,436.19,235.44z"/>
				</g>
			</g>
		</g>
	</g>
</g>
<g id="Character">
	<g id="Character_1_">
		<g id="XMLID_2425_">
			<path id="XMLID_2426_" class="st23" d="M393.11,274.22c3.91,0.76,5.69,2.09,7.91,7.51c2.22,5.42,6.18,18.62,7.11,22.25
				c0.41,1.62-9.86,16.14-9.42,15.93c0.14-0.07-4.01-7-4.01-7l5.04-9.65l-3.59-8.77L393.11,274.22z"/>
		</g>
		<path id="XMLID_2132_" class="st2" d="M391.79,274.3c0,0,3.57-0.64,5.93,1.32s2.72,3.26,4.31,7.29
			c1.59,4.03,4.22,12.39,4.22,12.39s-0.75,4.5-8.08,5.39l-6.28-14.15C391.88,286.55,389.69,277.99,391.79,274.3z"/>
		<g id="XMLID_2396_">
			<path id="XMLID_2182_" class="st13" d="M384.43,390.41c-0.1,1.27-0.26,2.41,0.23,3.81c0.71,2,2.2,2.92,3.08,3.71
				c0.88,0.79,1.86,1.96,2.56,3.1c0.62,1.01,1.33,2.18,2.67,3.34c0.83,0.72,3.18,0.79,4.32,0.31c1.13-0.48,1.51-0.9,1.44-2.71
				c-0.07-1.77-5.55-2.42-5.55-2.42L384.43,390.41z"/>
			<path id="XMLID_2321_" class="st2" d="M398.02,396.58c0.47,0.18,0.59,1.07,0.66,2.84c0.05,1.34,0.62,3.3-1.23,4.15
				c-1.49,0.68-3.87,0.23-4.88-1.04c-1.26-1.58-2.1-2.97-3.9-4.89c-1.56-1.67-3.17-2.23-3.86-5.57c-0.44-2.14-0.09-3.03,1.35-3.65
				c1.98-0.85,5.1,1.92,6.66,2.35C394.15,391.15,397.55,396.4,398.02,396.58z"/>
			<path id="XMLID_2324_" class="st8" d="M398.02,396.58c0.47,0.18,0.59,1.07,0.66,2.84c0.05,1.34,0.62,3.3-1.23,4.15
				c-1.49,0.68-3.87,0.23-4.88-1.04c-1.26-1.58-2.1-2.97-3.9-4.89c-1.56-1.67-3.17-2.23-3.86-5.57c-0.44-2.14-0.09-3.03,1.35-3.65
				c1.98-0.85,5.1,1.92,6.66,2.35C394.15,391.15,397.55,396.4,398.02,396.58z"/>
			<path id="XMLID_2428_" class="st9" d="M392.81,390.77c-0.08-0.02-0.17-0.06-0.26-0.09c-2.86,0.25-4.01,2.22-4.3,2.82
				c-0.26,0.58,0.55,1.04,1.04,0.58c1.11-2.2,3.39-2.69,4.29-2.8C393.29,391.02,393.02,390.83,392.81,390.77z"/>
			<path id="XMLID_2430_" class="st9" d="M394.09,391.78c-2.65,0.36-3.71,2.22-3.99,2.79c-0.26,0.58,0.55,1.04,1.04,0.58
				c0.88-1.75,2.5-2.42,3.58-2.67C394.51,392.24,394.3,392,394.09,391.78z"/>
			<g id="XMLID_2176_">
				<path id="XMLID_2128_" class="st13" d="M359.48,417.82c-0.3,1.5,0.24,2.28,2.18,3.4c1.94,1.12,4.98,1.5,8.18,0.57
					c3.2-0.93,4.73-2.33,6.06-2.66c1.33-0.33,4.62-0.36,5.93-0.75c1.31-0.38,1.29-1.06,1.29-2.64L359.48,417.82z"/>
				<g id="XMLID_2419_">
					<path id="XMLID_2420_" class="st2" d="M381.83,408.13c0,0,0.62,1.89,0.96,3.55c0.27,1.32,0.65,3.51,0.19,4.5
						c-0.46,0.99-2.26,1.63-5.04,1.61c-1.8-0.01-4.61,1.21-6.54,2.29c-1.99,1.11-4.14,1.11-6.25,0.87
						c-2.48-0.29-5.04-1.73-5.45-2.75c-0.4-1.03-0.5-1.8,5.34-4.28c0.05-0.02,6.78-2.5,9.6-5.62L381.83,408.13z"/>
				</g>
				<g id="XMLID_2108_" class="st8">
					<path id="XMLID_2173_" d="M381.83,408.13c0,0,0.62,1.89,0.96,3.55c0.27,1.32,0.65,3.51,0.19,4.5
						c-0.46,0.99-2.26,1.63-5.04,1.61c-1.8-0.01-4.61,1.21-6.54,2.29c-1.99,1.11-4.14,1.11-6.25,0.87
						c-2.48-0.29-5.04-1.73-5.45-2.75c-0.4-1.03-0.5-1.8,5.34-4.28c0.05-0.02,6.78-2.5,9.6-5.62L381.83,408.13z"/>
				</g>
				<path id="XMLID_2131_" class="st9" d="M370.6,420.46c0,0-0.5-5.01-4.58-6.45c-3.68-1.3-6.9,1.43-6.54,3.81
					C359.72,419.41,364.21,423.04,370.6,420.46z"/>
				<path id="XMLID_2175_" class="st9" d="M367.06,413.07c0,0,1.31,0,2.78,1.24c1.18,0.99,1.21,1.65,1.21,1.65
					c0.27,0.41,1.13,0.19,1.06-0.51c0,0-0.27-2.53-3.6-3.05C368.51,412.4,367.6,412.17,367.06,413.07z"/>
				<path id="XMLID_2179_" class="st9" d="M369.39,411.95c0,0,1.34-0.12,2.81,1.12c1.18,0.99,1.18,1.77,1.18,1.77
					c0.27,0.41,1.13,0.19,1.06-0.51c0,0-0.27-2.53-3.6-3.05C370.84,411.28,369.93,411.05,369.39,411.95z"/>
				<path id="XMLID_2181_" class="st9" d="M371.7,410.63c0,0,1.33-0.21,2.88,0.92c1.24,0.91,1.3,1.68,1.3,1.68
					c0.3,0.39,1.14,0.11,1.03-0.58c0,0-0.45-2.5-3.8-2.79C373.1,409.86,372.18,409.7,371.7,410.63z"/>
			</g>
			<g id="XMLID_2421_">
				<path id="XMLID_2422_" class="st23" d="M398.02,393.71v3.4c0,0-2.26,1.74-5.5,0.15c-0.1-0.21-0.37-3.55-0.37-3.55H398.02z"/>
			</g>
			<g id="XMLID_2404_">
				<path id="XMLID_2405_" class="st23" d="M381.83,405.78c0,0-0.01,1.61,0,2.54c0.01,0.92-1.08,2.3-3.9,2.2
					c-1.98-0.07-3.36-0.6-3.29-2.23v-2.35L381.83,405.78z"/>
			</g>
			<g id="XMLID_2397_">
				<path id="XMLID_2398_" class="st13" d="M401.68,364.85c-0.18-7.17-1.66-10.32-1.66-10.32s0.55-8.86,1.74-19.71
					c1.81-16.52,0.98-19.72-2.28-27.15c0,0-27.8-2.82-28.65,8.74c-1.06,14.39-1.18,43.66-0.8,48.74c0.38,5.08,0.38,0.39,1.61,10.68
					c0.98,8.14,3,30.11,3,30.11c3.69,1.99,7.19-0.15,7.19-0.15s2.27-26.89,2.03-32.75c-0.29-7.16-0.7-8.98-0.7-8.98
					s3.25-23.18,3.75-26.92c0,0,0.45,6.68,0.83,11.76c0.38,5.08,0.35,9.18,1.42,19.69c0.84,8.25,2.87,26.05,2.87,26.05
					c3.29,1.39,6.06-0.45,6.06-0.45S401.83,370.65,401.68,364.85z"/>
			</g>
			<path id="XMLID_2318_" class="st9" d="M385.72,394.54c0,0,0.16-3.97,5.52-4.52l0.31,0.17c0,0-0.86-1.56-2.64-2.04
				c-1.79-0.48-3.19-0.02-4.13,1.19S384.79,393.77,385.72,394.54z"/>
		</g>
		<g id="XMLID_2393_">
			<g id="XMLID_2394_">
				<polygon id="XMLID_2395_" class="st23" points="378.87,270.48 380.18,281.22 389.62,280.37 388.55,268.44 				"/>
			</g>
		</g>
		<g id="XMLID_2357_">
			<g id="XMLID_2358_">
				<path id="XMLID_2361_" class="st11" d="M398.84,279.41c-1.04-2.83-3.42-5.79-7.05-5.11c-0.95,0.18-1.78,0.31-2.67,0.49
					c-0.08,2.47-4.75,3.76-9.39,2.25c-1.4,0.4-2.68,0.81-3.84,1.22c-3.32,1.19-4.66,6.71-4.73,15.95
					c-0.07,9.24-1.37,27.79-1.37,27.79s6.99,3.71,20.07,1.34c13.08-2.37,12.85-6.82,12.85-6.82s-0.26-5.42-6.16-14.52
					C401.56,288.69,400.38,283.61,398.84,279.41z"/>
			</g>
		</g>
		<g id="XMLID_2319_">
			<g id="XMLID_2353_">
				<path id="XMLID_2356_" class="st18" d="M371.85,256.83c0,0-1.98-3.76,0.71-7.99c3.17-4.98,9.28-5.83,16.53-3.89
					c3.59,0.96,8.61,4.78,9.06,11.67c0.35,5.31-14.47,9.23-14.13,12.87L371.85,256.83z"/>
			</g>
			<g id="XMLID_2343_">
				<path id="XMLID_2350_" class="st24" d="M371.54,258.85c0,0-2.01,3.22-1.73,3.55c0.28,0.33,1.62,0.65,1.62,0.65L371.54,258.85z"
					/>
			</g>
			<g id="XMLID_2334_">
				<path id="XMLID_2340_" class="st23" d="M377.67,248.64c-2.01,1.11-5.48,3.15-6.18,10.67c-0.72,7.73,1.07,10.36,2.14,11.34
					c0.73,0.66,4.39,0.81,6.28,0.17c2.37-0.81,7.47-3.5,9.79-7.54c2.73-4.75,3.15-11-0.21-13.36
					C384.76,246.6,379.37,247.7,377.67,248.64z"/>
			</g>
			<path id="XMLID_955_" class="st18" d="M377.77,257.73c0,0-4.14-1.27-4.9-6.17c-0.76-4.9,5.37-6.98,5.37-6.98L377.77,257.73z"/>
			<g id="XMLID_2322_">
				<path id="XMLID_2323_" class="st18" d="M377.07,248.97c0,0-1.59,7.07,0.66,11.46c0,0,1.17-2.78,3.55-2.05
					c2.39,0.73,2.26,3.9,0.44,5.56c-1.82,1.67-3.66,0.88-3.66,0.88s1.09,2.98,3.53,5.34c0,0,7.04,3.14,13.14-3.74
					c5.53-6.24,4.5-17.13-3.97-19.7C382.3,244.15,377.07,248.97,377.07,248.97z"/>
			</g>
			<path id="XMLID_953_" class="st18" d="M406.24,276.69L406.24,276.69c-5.31,0-9.61-4.3-9.61-9.61v-16.1l0,0
				c5.31,0,9.61,4.3,9.61,9.61V276.69z"/>
			<path id="XMLID_2320_" class="st18" d="M397.7,248.89c-0.87,0.28-1.35,1.22-1.07,2.09l3.16-1.02
				C399.51,249.09,398.58,248.61,397.7,248.89z"/>
		</g>
		<g id="XMLID_2092_">
			<g id="XMLID_2316_">
				<path id="XMLID_2317_" class="st23" d="M351.98,295.29c-1.37-1.57-1.6-5.03-3.43-7.41c-1.78-2.32-1.49-4.78-2.64-3.71
					c-1.23,1.14-0.29,4.97-0.29,4.97s-2.13,3.95-2.31,5.97c-0.18,2.02,5.16,7.09,5.16,7.09L351.98,295.29z"/>
			</g>
			<g id="XMLID_2124_">
				<path id="XMLID_2267_" class="st23" d="M345.92,288.87c0,0-2.16,3.03-11.91-0.93c-2.69-1.09-0.88,4.7,2.43,7.09
					c3.06,2.22,6.88,2.91,9.94,4.98C346.38,299.72,345.92,288.87,345.92,288.87z"/>
			</g>
			<g id="XMLID_2119_">
				<path id="XMLID_2120_" class="st23" d="M376.71,277.99c-2.78,0.97-5.21,2.08-7.8,6.95c-3.33,6.26-9.39,18.52-9.39,18.52
					l-7.55-8.17c0,0-1.1-1.55-3.14,1.83c-2.04,3.38-1.14,4.31-1.14,4.31s8.78,11.76,10.39,13.26c1.61,1.5,4.26,0.33,5.99-2.02
					c1.73-2.35,10.66-18.54,10.66-18.54S380.64,283.9,376.71,277.99z"/>
			</g>
			<path id="XMLID_954_" class="st2" d="M378.06,277.55c-0.69,0.22-5.48,0.22-8.46,5.63c-3.32,6-6.81,12.78-6.81,12.78
				s2.4,5.8,8.54,6.25c0.01-0.6,5.02-9.5,6.91-13.31C380.11,285.08,379.94,279.26,378.06,277.55z"/>
		</g>
		<path id="XMLID_2118_" class="st11" d="M386.92,337.13l0.53-5.62c0,0,4.08-0.39,8.48-3.21c0,0-1.81,2.89-6.76,4.21l-1.12,5.47
			l-0.29,10.91L386.92,337.13z"/>
	</g>
</g>
</svg>
