<svg xmlns="http://www.w3.org/2000/svg" viewBox="0 0 12094.493 4535.4268" height="4535.4268" width="12094.493" xml:space="preserve" id="svg2" version="1.1"><defs id="defs6"><clipPath id="clipPath18" clipPathUnits="userSpaceOnUse"><path id="path16" d="M 0,3401.574 H 9070.866 V 0 H 0 Z"/></clipPath></defs><g transform="matrix(1.3333333,0,0,-1.3333333,0,4535.4267)" id="g10"><g id="g12"><g clip-path="url(#clipPath18)" id="g14"><g transform="translate(8618.7832,2208.8774)" id="g20"><path id="path22" style="fill:#1f7632;fill-opacity:1;fill-rule:nonzero;stroke:none" d="m 0,0 55.184,88.853 51.24,-84.814 -7.858,-28.281 15.742,-355.41 c 0,0 19.708,-48.485 43.356,-60.6 23.65,-12.126 39.417,-28.266 39.417,-28.266 0,0 -35.475,-72.688 -63.065,-64.624 -27.592,20.191 -67.008,48.444 -67.008,113.082 -7.908,68.662 -19.733,331.195 -19.733,331.195 0,0 3.967,16.153 -47.275,88.865"/></g><g transform="translate(8346.7383,2212.916)" id="g24"><path id="path26" style="fill:#1f7632;fill-opacity:1;fill-rule:nonzero;stroke:none" d="m 0,0 59.148,88.865 55.183,-72.713 c 0,0 15.767,-36.356 11.825,-52.508 3.942,-40.382 3.942,-311.004 3.942,-311.004 0,0 11.824,-40.369 35.474,-12.102 27.592,24.216 106.424,64.623 102.507,-44.42 -11.825,-48.484 -59.124,-113.107 -82.773,-133.299 -19.734,-12.115 -67.033,-32.304 -82.8,12.127 -15.766,12.114 -15.766,80.778 -51.24,32.306 -15.766,-28.279 -43.358,-44.433 -63.09,-44.433 -19.734,0 -70.975,-4.052 -70.975,-4.052 0,0 -31.508,0.027 -31.508,28.293 -7.908,16.141 -39.416,56.523 -59.148,24.217 -7.909,-24.217 -39.417,-56.548 -98.566,-56.548 -47.325,0 -78.832,-4.025 -78.832,-4.025 l -19.733,-20.189 -82.799,76.737 43.383,64.624 v 339.271 c 0,0 0,24.229 -59.149,68.662 27.59,56.547 78.831,133.298 78.831,133.298 0,0 51.293,-68.649 43.383,-153.489 3.942,-68.661 0,-387.742 0,-387.742 0,0 35.5,-88.865 137.982,-32.318 15.766,0 70.975,56.56 70.975,56.56 0,0 43.357,12.088 43.357,-20.217 11.824,-20.191 43.382,-52.484 82.799,-48.458 23.674,0 82.798,16.14 86.74,96.93 v 294.851 z"/></g><g transform="translate(8488.6602,1780.7402)" id="g28"><path id="path30" style="fill:#ffffff;fill-opacity:1;fill-rule:nonzero;stroke:none" d="M 0,0 C 0,0 70.924,56.549 74.892,-8.076 70.975,-36.357 23.65,-80.789 0,0"/></g><g transform="translate(7585.8574,2285.6162)" id="g32"><path id="path34" style="fill:#1f7632;fill-opacity:1;fill-rule:nonzero;stroke:none" d="m 0,0 c 0,0 43.409,20.204 35.5,-16.153 -19.733,-24.229 -145.915,-165.591 -51.292,-319.08 31.559,-32.306 145.916,-137.311 224.773,-96.929 27.566,-8.089 94.547,-48.471 11.774,-105.02 -35.448,-4.051 -161.606,4.039 -161.606,4.039 l -82.798,-113.094 -27.591,12.114 -3.968,52.51 h -149.806 c 0,0 15.792,96.954 82.799,92.903 43.358,-12.114 90.708,-28.267 134.066,0 -11.851,24.242 -15.767,40.407 -35.5,56.548 -19.734,28.266 -137.982,185.794 -51.242,335.232 C -35.475,-48.458 0,0 0,0"/></g><g transform="translate(7309.9199,1784.7919)" id="g36"><path id="path38" style="fill:#1f7632;fill-opacity:1;fill-rule:nonzero;stroke:none" d="m 0,0 35.425,-44.433 c 0,0 102.531,125.197 -7.859,137.311 C -11.85,68.662 -118.299,3.999 -130.123,-40.408 c -11.85,-48.457 -47.299,-125.196 -3.941,-181.744 7.908,-20.19 19.682,-76.763 -55.207,-36.356 -35.451,12.115 -102.508,117.147 -114.333,113.095 3.966,-48.471 31.534,-205.998 212.897,-222.15 31.559,0 114.357,4.049 19.708,113.106 -35.475,52.496 -82.748,96.903 -15.741,193.858 C -51.266,-24.242 -23.675,8.063 0,0"/></g><g transform="translate(6970.8418,2212.916)" id="g40"><path id="path42" style="fill:#1f7632;fill-opacity:1;fill-rule:nonzero;stroke:none" d="M 0,0 55.207,80.789 102.531,-8.063 94.623,-424.099 31.558,-525.054 c 0,0 -153.748,-84.84 -149.831,68.637 7.908,60.599 90.682,193.885 90.682,193.885 0,0 70.974,32.292 82.798,28.266 0,32.318 7.858,149.451 7.858,149.451 z"/></g><g transform="translate(6895.9258,1800.9316)" id="g44"><path id="path46" style="fill:#ffffff;fill-opacity:1;fill-rule:nonzero;stroke:none" d="M 0,0 C 0,0 -7.908,101.006 98.565,72.713 118.299,44.434 153.772,-20.216 78.883,-56.548 55.208,-72.688 7.857,-44.433 0,0"/></g><g transform="translate(8149.6328,1570.7168)" id="g48"><path id="path50" style="fill:#1f7632;fill-opacity:1;fill-rule:nonzero;stroke:none" d="M 0,0 39.416,48.471 86.716,-8.077 43.332,-48.458 Z"/></g><g transform="translate(6761.9121,2204.8262)" id="g52"><path id="path54" style="fill:#1f7632;fill-opacity:1;fill-rule:nonzero;stroke:none" d="M 0,0 39.416,48.472 86.739,-8.076 43.357,-48.458 Z"/></g><g transform="translate(6765.8535,2095.7695)" id="g56"><path id="path58" style="fill:#1f7632;fill-opacity:1;fill-rule:nonzero;stroke:none" d="M 0,0 39.416,48.485 86.715,-8.063 43.332,-48.445 Z"/></g><g transform="translate(5113.9687,1538.3984)" id="g60"><path id="path62" style="fill:#1f7632;fill-opacity:1;fill-rule:nonzero;stroke:none" d="M 0,0 39.416,48.483 86.74,-8.064 43.333,-48.458 Z"/></g><g transform="translate(4983.8701,1538.3984)" id="g64"><path id="path66" style="fill:#1f7632;fill-opacity:1;fill-rule:nonzero;stroke:none" d="M 0,0 39.441,48.483 86.741,-8.064 43.357,-48.458 Z"/></g><g transform="translate(5248.0088,2039.2479)" id="g68"><path id="path70" style="fill:#1f7632;fill-opacity:1;fill-rule:nonzero;stroke:none" d="M 0,0 39.415,48.472 86.74,-8.076 43.357,-48.457 Z"/></g><g transform="translate(4573.8691,2212.916)" id="g72"><path id="path74" style="fill:#1f7632;fill-opacity:1;fill-rule:nonzero;stroke:none" d="M 0,0 39.416,48.484 86.739,-8.063 43.357,-48.445 Z"/></g><g transform="translate(3931.2612,2019.0576)" id="g76"><path id="path78" style="fill:#1f7632;fill-opacity:1;fill-rule:nonzero;stroke:none" d="M 0,0 39.416,48.472 86.741,-8.077 43.345,-48.458 Z"/></g><g transform="translate(3816.9424,2019.0576)" id="g80"><path id="path82" style="fill:#1f7632;fill-opacity:1;fill-rule:nonzero;stroke:none" d="M 0,0 39.416,48.472 86.728,-8.077 43.345,-48.458 Z"/></g><g transform="translate(3627.707,2019.0576)" id="g84"><path id="path86" style="fill:#1f7632;fill-opacity:1;fill-rule:nonzero;stroke:none" d="M 0,0 39.416,48.472 86.741,-8.077 43.358,-48.458 Z"/></g><g transform="translate(3107.3022,1534.373)" id="g88"><path id="path90" style="fill:#1f7632;fill-opacity:1;fill-rule:nonzero;stroke:none" d="M 0,0 39.429,48.484 86.741,-8.063 43.357,-48.458 Z"/></g><g transform="translate(2989.0415,1534.373)" id="g92"><path id="path94" style="fill:#1f7632;fill-opacity:1;fill-rule:nonzero;stroke:none" d="M 0,0 39.416,48.484 86.728,-8.063 43.345,-48.458 Z"/></g><g transform="translate(2638.1636,2120.0376)" id="g96"><path id="path98" style="fill:#1f7632;fill-opacity:1;fill-rule:nonzero;stroke:none" d="M 0,0 39.416,48.472 86.74,-8.077 43.357,-48.458 Z"/></g><g transform="translate(1837.8672,1518.2324)" id="g100"><path id="path102" style="fill:#1f7632;fill-opacity:1;fill-rule:nonzero;stroke:none" d="M 0,0 39.416,48.473 86.74,-8.075 43.357,-48.457 Z"/></g><g transform="translate(864.1021,1530.3348)" id="g104"><path id="path106" style="fill:#1f7632;fill-opacity:1;fill-rule:nonzero;stroke:none" d="M 0,0 39.415,48.472 86.741,-8.076 43.357,-48.458 Z"/></g><g transform="translate(749.7832,1530.3348)" id="g108"><path id="path110" style="fill:#1f7632;fill-opacity:1;fill-rule:nonzero;stroke:none" d="M 0,0 39.416,48.472 86.74,-8.076 43.345,-48.458 Z"/></g><g transform="translate(312.1895,2120.0376)" id="g112"><path id="path114" style="fill:#1f7632;fill-opacity:1;fill-rule:nonzero;stroke:none" d="M 0,0 39.416,48.472 86.728,-8.077 43.345,-48.458 Z"/></g><g transform="translate(312.1895,2229.0815)" id="g116"><path id="path118" style="fill:#1f7632;fill-opacity:1;fill-rule:nonzero;stroke:none" d="M 0,0 39.416,48.483 86.728,-8.064 43.345,-48.458 Z"/></g><g transform="translate(1672.2817,2023.1093)" id="g120"><path id="path122" style="fill:#1f7632;fill-opacity:1;fill-rule:nonzero;stroke:none" d="M 0,0 39.416,48.471 86.741,-8.076 43.345,-48.458 Z"/></g><g transform="translate(1617.1123,2164.4712)" id="g124"><path id="path126" style="fill:#1f7632;fill-opacity:1;fill-rule:nonzero;stroke:none" d="M 0,0 39.416,48.47 86.728,-8.077 43.345,-48.458 Z"/></g><g transform="translate(1557.9629,2027.1337)" id="g128"><path id="path130" style="fill:#1f7632;fill-opacity:1;fill-rule:nonzero;stroke:none" d="M 0,0 39.416,48.472 86.728,-8.076 43.345,-48.458 Z"/></g><g transform="translate(2642.1172,2226.3379)" id="g132"><path id="path134" style="fill:#1f7632;fill-opacity:1;fill-rule:nonzero;stroke:none" d="M 0,0 39.417,48.483 86.741,-8.077 43.346,-48.458 Z"/></g><g transform="translate(4577.8105,2103.8726)" id="g136"><path id="path138" style="fill:#1f7632;fill-opacity:1;fill-rule:nonzero;stroke:none" d="M 0,0 39.416,48.47 86.715,-8.077 43.332,-48.458 Z"/></g><g transform="translate(6497.748,2196.75)" id="g140"><path id="path142" style="fill:#1f7632;fill-opacity:1;fill-rule:nonzero;stroke:none" d="m 0,0 86.715,105.031 -11.824,-504.875 47.324,-52.522 -51.24,-68.649 -47.325,60.573 11.825,379.678 c 0,0 -3.967,56.535 -35.475,80.764"/></g><g transform="translate(6332.1758,2196.75)" id="g144"><path id="path146" style="fill:#1f7632;fill-opacity:1;fill-rule:nonzero;stroke:none" d="m 0,0 47.325,92.904 c 0,0 55.208,-40.382 47.299,-96.929 0,-64.624 -3.968,-407.933 -3.968,-407.933 0,0 7.909,-92.892 -67.007,-109.057 -19.682,-8.089 -47.324,-12.115 -47.324,-12.115 0,0 -94.573,-238.316 -244.379,-298.891 -27.641,-16.151 -220.755,-145.372 -429.76,100.982 66.981,-36.357 283.82,-169.655 461.217,0 51.267,32.306 145.839,153.451 165.573,181.744 -23.65,4.038 -126.157,8.09 -126.157,8.09 0,0 -82.799,-8.09 -74.89,80.763 19.733,56.547 71.024,201.948 181.364,109.057 47.273,-48.459 70.924,-64.625 67.008,-76.739 -3.943,-12.127 51.291,-72.674 70.973,8.09 11.826,84.814 3.943,367.538 3.943,367.538 0,0 4.041,20.19 -51.217,52.496"/></g><g transform="translate(6190.1768,1736.3085)" id="g148"><path id="path150" style="fill:#ffffff;fill-opacity:1;fill-rule:nonzero;stroke:none" d="M 0,0 C 0,0 -106.423,-60.573 -67.007,60.598 -39.415,72.726 47.274,60.584 0,0"/></g><g transform="translate(5744.7256,2192.7246)" id="g152"><path id="path154" style="fill:#1f7632;fill-opacity:1;fill-rule:nonzero;stroke:none" d="m 0,0 c 0,0 -19.733,133.299 126.157,84.815 15.74,-24.242 31.507,-117.12 27.591,-141.362 -3.941,-24.229 -19.733,-161.579 -59.149,-181.769 35.474,-20.191 126.156,-96.904 134.04,-113.069 23.649,-16.166 51.24,-56.548 23.649,-100.98 -23.649,-44.433 -78.832,-100.981 -78.832,-100.981 h -544.042 l -51.266,92.904 -90.657,-84.828 -94.623,-4.024 -55.183,64.623 -90.707,-56.561 -74.916,12.128 -51.241,80.763 -86.74,-88.839 c 0,0 -31.457,-32.305 -35.449,0 -15.792,32.318 -63.117,109.057 -138.007,84.815 -35.449,-16.166 -74.915,-28.267 -86.74,24.242 7.908,48.443 3.941,96.929 86.74,96.929 51.292,-4.051 118.299,-20.218 181.364,48.458 31.559,16.166 94.624,68.662 86.74,169.64 -7.908,52.511 -39.466,137.312 -59.149,161.554 19.734,16.167 78.883,92.904 78.883,92.904 l 23.599,-521.042 c 0,0 51.266,-165.59 161.657,-8.061 19.732,20.19 51.265,52.496 51.265,12.114 3.943,-36.357 35.499,-153.503 165.574,-28.28 23.673,24.227 74.914,80.789 63.089,4.038 19.684,-28.254 90.657,-56.547 90.657,-56.547 0,0 252.313,222.151 315.379,201.961 47.325,12.114 130.073,80.763 74.916,218.099 C 67.008,-44.432 7.909,-60.572 0,0"/></g><g transform="translate(5728.959,1744.3837)" id="g156"><path id="path158" style="fill:#ffffff;fill-opacity:1;fill-rule:nonzero;stroke:none" d="m 0,0 47.274,96.956 c 0,0 39.416,32.305 86.741,0 C 177.397,48.472 197.08,0 169.515,0 134.015,-8.075 0,0 0,0"/></g><g transform="translate(5520.0039,1740.3593)" id="g160"><path id="path162" style="fill:#ffffff;fill-opacity:1;fill-rule:nonzero;stroke:none" d="M 0,0 C 0,0 189.273,173.666 248.371,129.247 244.404,100.981 181.339,-4.051 181.339,-4.051 Z"/></g><g transform="translate(4822.2148,1881.7207)" id="g164"><path id="path166" style="fill:#ffffff;fill-opacity:1;fill-rule:nonzero;stroke:none" d="M 0,0 C 0,0 63.065,44.446 51.24,-40.381 31.507,-84.815 3.916,-105.005 3.916,-105.005 c 0,0 -118.248,-60.573 -67.007,52.51 C -27.591,-20.191 0,0 0,0"/></g><g transform="translate(4325.4717,2285.6162)" id="g168"><path id="path170" style="fill:#1f7632;fill-opacity:1;fill-rule:nonzero;stroke:none" d="m 0,0 27.617,-500.824 c 0,0 -55.183,-290.8 -232.605,-64.624 -31.546,-32.306 -161.631,-169.643 -240.489,-4.051 -43.37,-44.434 -157.689,-153.478 -224.709,0 -39.428,-32.305 -90.694,-60.572 -90.694,-60.572 h -94.612 c 0,0 -114.319,-100.995 -212.884,48.458 -31.533,-24.244 -98.565,-125.223 -173.468,40.38 -23.662,-48.457 -126.144,-181.744 -220.768,-8.075 -35.487,-20.191 -90.682,-96.903 -90.682,-125.197 -27.591,24.229 -145.864,145.388 -189.222,125.197 -39.416,-8.064 -74.928,12.126 -47.324,56.547 27.616,40.395 35.474,109.082 106.448,48.485 31.533,-16.166 51.241,0 118.273,52.496 47.312,40.381 82.799,68.675 82.799,68.675 0,0 70.962,56.546 7.883,185.781 -15.779,52.509 7.884,201.961 63.079,141.362 7.87,-40.395 11.825,-129.235 11.825,-129.235 l -19.708,-311.004 c 0,0 11.824,-242.342 205.001,-12.126 19.708,-28.255 51.253,-197.923 181.351,-4.039 35.474,28.28 98.566,117.119 169.527,-12.128 7.87,-36.33 63.066,-181.756 224.709,0 19.708,-36.33 43.383,-173.641 240.488,-4.025 15.767,-28.28 94.599,-177.731 197.118,4.025 -11.837,109.07 -15.766,327.17 -15.766,327.17 l -39.442,40.394 82.812,113.095 11.812,-476.607 c 0,0 98.578,-214.076 137.994,-12.129 7.884,60.599 -7.896,331.209 -7.896,331.209 l -43.37,52.496 z"/></g><g transform="translate(3316.2202,1760.5498)" id="g172"><path id="path174" style="fill:#ffffff;fill-opacity:1;fill-rule:nonzero;stroke:none" d="M 0,0 C 0,0 98.565,113.083 98.565,-4.051 90.682,-36.357 31.545,-84.815 0,0"/></g><g transform="translate(2811.6191,1877.6699)" id="g176"><path id="path178" style="fill:#ffffff;fill-opacity:1;fill-rule:nonzero;stroke:none" d="m 0,0 c 0,0 43.345,56.548 47.299,-20.191 l 3.942,-40.381 -74.903,-92.905 -70.975,56.547 z"/></g><g transform="translate(2267.5771,2229.0684)" id="g180"><path id="path182" style="fill:#1f7632;fill-opacity:1;fill-rule:nonzero;stroke:none" d="m 0,0 47.299,68.662 c 0,0 51.216,-52.522 39.416,-133.286 3.942,-84.815 -3.929,-347.347 -3.929,-347.347 0,0 27.566,-84.827 47.287,-92.904 -11.8,-20.19 -39.416,-60.573 -39.416,-60.573 0,0 -70.949,12.115 -63.078,129.235 0,117.133 15.779,339.284 15.779,339.284 0,0 -19.708,72.687 -43.358,96.929"/></g><g transform="translate(2046.7842,2212.916)" id="g184"><path id="path186" style="fill:#1f7632;fill-opacity:1;fill-rule:nonzero;stroke:none" d="m 0,0 82.786,80.777 31.546,-448.328 c 0,0 -7.871,-205.986 -173.456,-205.986 -35.487,16.152 -106.461,149.451 -145.877,56.548 -11.825,-32.307 -86.74,-52.524 -106.448,-28.282 -23.65,-4.025 -47.299,8.09 -47.299,-16.152 -11.825,-8.062 -98.553,-32.306 -122.215,52.51 -27.592,-28.268 -165.586,-137.312 -240.489,12.114 -31.545,-12.114 -232.617,-76.751 -106.448,-181.757 39.441,-44.42 63.09,-68.674 51.266,-193.858 -11.825,-20.191 -252.325,-60.624 -283.858,238.278 27.578,-36.33 110.389,-181.744 197.117,-169.616 15.767,4.038 23.65,20.19 23.65,20.19 0,0 -134.014,96.957 -11.812,266.573 82.786,64.623 208.93,165.577 240.475,113.081 -19.708,-24.216 -86.714,-161.553 102.507,-48.458 39.416,20.19 59.124,64.624 59.124,12.114 15.78,-20.19 27.617,-149.45 122.228,28.268 23.637,-44.433 74.903,-129.249 189.222,0 23.662,-28.268 177.422,-189.821 197.13,16.166 -3.954,153.488 3.929,306.965 3.929,306.965 z"/></g><g transform="translate(988.1113,1816.1385)" id="g188"><path id="path190" style="fill:#1f7632;fill-opacity:1;fill-rule:nonzero;stroke:none" d="m 0,0 31.545,56.548 67.019,-100.954 -70.948,-129.26 -354.82,-8.077 c 0,0 -106.448,16.152 -106.448,109.057 -23.65,-20.191 -98.553,-72.701 -98.553,-109.057 -19.721,20.191 -102.494,133.273 -193.189,72.7 -3.941,36.357 -27.604,226.216 102.494,129.261 27.617,-12.114 27.591,-4.065 55.195,24.216 27.617,28.28 114.345,129.26 114.345,129.26 0,0 27.591,88.865 27.591,117.12 -15.779,28.267 -51.241,80.79 -51.241,80.79 0,0 31.558,197.909 98.553,76.751 3.941,-68.675 -3.942,-484.685 -3.942,-484.685 0,0 -15.779,-56.535 74.903,-52.509 82.787,-4.038 295.671,0 295.671,0 0,0 67.019,-20.229 11.825,88.839"/></g><g transform="translate(424.3608,1763.6436)" id="g192"><path id="path194" style="fill:#ffffff;fill-opacity:1;fill-rule:nonzero;stroke:none" d="m 0,0 c 0,0 51.253,-64.599 74.903,-16.14 39.416,28.254 55.195,40.381 63.078,109.043 -7.883,40.383 7.884,109.071 -67.02,36.357 C 39.417,68.662 0,0 0,0"/></g><g transform="translate(144.0776,803.3994)" id="g196"><path id="path198" style="fill:#1f7632;fill-opacity:1;fill-rule:nonzero;stroke:none" d="M 0,0 1.983,335.608 89.394,335.065 87.41,-0.519 Z"/></g><g transform="translate(342.0801,1048.2275)" id="g200"><path id="path202" style="fill:#1f7632;fill-opacity:1;fill-rule:nonzero;stroke:none" d="m 0,0 h 1.225 c 5.066,16.463 32.405,26.635 53.49,26.531 50.218,-0.284 51.885,-28.163 51.708,-59.252 l -1.276,-213.971 -78.731,0.492 1.251,209.725 c 0.038,6.601 -3.638,14.16 -14.175,14.238 -10.536,0.078 -13.682,-7.454 -13.719,-14.031 l -1.251,-209.778 -78.731,0.493 1.604,269.625 78.731,-0.491 z"/></g><g transform="translate(471.8623,1086.0459)" id="g204"><path id="path206" style="fill:#1f7632;fill-opacity:1;fill-rule:nonzero;stroke:none" d="M 0,0 0.29,50.917 79.034,50.424 78.731,-0.492 Z m -1.693,-284.666 1.605,269.626 78.743,-0.491 -1.617,-269.627 z"/></g><g transform="translate(664.584,1069.7889)" id="g208"><path id="path210" style="fill:#1f7632;fill-opacity:1;fill-rule:nonzero;stroke:none" d="m 0,0 21.666,-0.129 -0.253,-44.317 -21.679,0.155 -0.972,-162.64 c -0.064,-8.438 1.731,-18.379 13.492,-18.456 l 9.298,-0.026 -0.265,-44.342 -35.31,0.259 c -56.421,0.311 -66.249,13.564 -65.984,55.059 l 1.011,170.638 -21.086,0.13 0.266,44.265 21.072,-0.104 0.278,49.002 78.743,-0.493 z"/></g><g transform="translate(701.8271,1084.621)" id="g212"><path id="path214" style="fill:#1f7632;fill-opacity:1;fill-rule:nonzero;stroke:none" d="M 0,0 0.303,50.918 79.034,50.426 78.743,-0.466 Z m -1.681,-284.664 1.605,269.626 78.731,-0.52 -1.604,-269.599 z"/></g><g transform="translate(891.3521,853.9541)" id="g216"><path id="path218" style="fill:#1f7632;fill-opacity:1;fill-rule:nonzero;stroke:none" d="m 0,0 c -0.038,-6.574 3.007,-14.134 13.542,-14.186 10.537,-0.078 14.314,7.429 14.352,14.031 L 28.349,77.605 14.06,70.15 C 2.842,62.669 0.367,60.806 0.278,49.053 Z m -77.796,157.463 c 0.24,40.511 42.511,60.573 92.729,60.236 49.598,-0.311 92.867,-20.864 92.627,-61.375 L 106.625,-1.087 c -0.113,-18.871 3.513,-36.809 5.244,-54.749 l -79.97,0.492 -4.182,27.413 H 26.48 c -10.651,-21.64 -29.929,-30.467 -52.871,-30.338 -39.682,0.233 -52.58,18.249 -52.403,48.873 l 0.341,58.008 c 0.392,67.823 106.878,41.264 107.219,99.712 l 0.063,10.822 c 0.039,6.626 -3.613,14.184 -14.162,14.237 C 4.131,173.461 0.973,165.928 0.935,159.3 l -0.215,-38.621 -78.731,0.492 z"/></g><g transform="translate(1119.0049,1067.0712)" id="g220"><path id="path222" style="fill:#1f7632;fill-opacity:1;fill-rule:nonzero;stroke:none" d="m 0,0 21.704,-0.129 -0.266,-44.292 -21.691,0.13 -0.973,-162.64 c -0.063,-8.464 1.731,-18.378 13.518,-18.457 l 9.286,-0.05 -0.253,-44.318 -35.336,0.234 c -56.42,0.336 -66.249,13.589 -65.983,55.085 l 1.011,170.638 -21.086,0.105 0.265,44.342 21.073,-0.182 0.278,49.027 78.731,-0.492 z"/></g><g transform="translate(1156.2861,1081.9033)" id="g224"><path id="path226" style="fill:#1f7632;fill-opacity:1;fill-rule:nonzero;stroke:none" d="M 0,0 0.29,50.917 79.034,50.426 78.73,-0.491 Z m -1.693,-284.666 1.617,269.628 78.731,-0.493 -1.605,-269.626 z"/></g><g transform="translate(1331.6367,1065.7509)" id="g228"><path id="path230" style="fill:#1f7632;fill-opacity:1;fill-rule:nonzero;stroke:none" d="m 0,0 19.228,-206.101 h 1.238 L 46.503,-0.285 118.412,-0.726 65.339,-270.015 -30.737,-269.419 -81.22,0.493 Z"/></g><g transform="translate(1570.2803,960.5507)" id="g232"><path id="path234" style="fill:#1f7632;fill-opacity:1;fill-rule:nonzero;stroke:none" d="m 0,0 0.278,48.563 c 0.051,6.575 -3.6,14.159 -14.15,14.237 -10.536,0.077 -13.694,-7.455 -13.732,-14.083 L -27.882,0.209 Z m -106.335,46.88 c 0.24,40.511 42.512,60.52 92.729,60.21 49.598,-0.285 92.868,-20.838 92.627,-61.376 l -0.518,-86.742 -106.625,0.699 -0.417,-70.254 c -0.038,-6.574 3.007,-14.135 13.543,-14.212 10.537,-0.052 14.302,7.482 14.351,14.057 l 0.291,51.848 78.744,-0.491 -0.303,-49.494 c -0.24,-40.537 -43.75,-60.547 -93.348,-60.211 -50.205,0.312 -92.249,20.864 -92.009,61.351 z"/></g><g transform="translate(1751.4551,793.2773)" id="g236"><path id="path238" style="fill:#1f7632;fill-opacity:1;fill-rule:nonzero;stroke:none" d="m 0,0 1.781,335.608 109.948,-0.75 39.189,-218.062 h 1.137 l 1.174,217.777 61.676,-0.439 -1.781,-335.583 -94.232,0.646 -54.639,264.346 -1.137,-0.932 -1.428,-262.999 z"/></g><g transform="translate(2068.2485,846.3183)" id="g240"><path id="path242" style="fill:#1f7632;fill-opacity:1;fill-rule:nonzero;stroke:none" d="m 0,0 c -0.051,-6.602 2.994,-14.108 13.53,-14.185 10.536,-0.105 14.313,7.428 14.351,14.029 l 0.455,77.76 -14.288,-7.455 C 2.83,62.668 0.354,60.805 0.278,49.053 Z m -77.809,157.461 c 0.24,40.539 42.511,60.547 92.728,60.236 49.599,-0.336 92.869,-20.863 92.628,-61.375 l -0.934,-157.41 c -0.114,-18.871 3.512,-36.809 5.242,-54.749 l -79.969,0.518 -4.181,27.388 h -1.238 c -10.65,-21.641 -29.928,-30.468 -52.871,-30.338 -39.669,0.285 -52.58,18.25 -52.403,48.872 l 0.341,57.984 c 0.404,67.873 106.878,41.288 107.219,99.737 l 0.064,10.821 c 0.037,6.626 -3.613,14.185 -14.15,14.211 C 4.118,173.434 0.972,165.927 0.922,159.3 l -0.214,-38.648 -78.732,0.545 z"/></g><g transform="translate(2288.3589,1059.4102)" id="g244"><path id="path246" style="fill:#1f7632;fill-opacity:1;fill-rule:nonzero;stroke:none" d="m 0,0 21.692,-0.105 -0.266,-44.291 -21.691,0.105 -0.973,-162.614 c -0.063,-8.465 1.731,-18.38 13.518,-18.457 l 9.285,-0.052 -0.253,-44.317 -35.335,0.233 c -56.42,0.363 -66.249,13.616 -65.984,55.111 l 1.011,170.588 -21.086,0.129 0.266,44.315 21.073,-0.102 0.278,49.001 78.743,-0.543 z"/></g><g transform="translate(2325.6274,1074.2666)" id="g248"><path id="path250" style="fill:#1f7632;fill-opacity:1;fill-rule:nonzero;stroke:none" d="M 0,0 0.303,50.918 79.034,50.427 78.731,-0.491 Z m -1.68,-284.69 1.604,269.624 78.731,-0.464 -1.605,-269.627 z"/></g><g transform="translate(2533.4961,1002.7187)" id="g252"><path id="path254" style="fill:#1f7632;fill-opacity:1;fill-rule:nonzero;stroke:none" d="M 0,0 C 0.038,6.627 -3.601,14.212 -14.162,14.289 -24.673,14.315 -27.869,6.809 -27.907,0.208 l -0.935,-159.301 c -0.038,-6.575 3.032,-14.134 13.556,-14.238 10.561,-0.077 14.313,7.456 14.351,14.032 z m 77.821,-157.411 c -0.24,-40.51 -43.787,-60.521 -93.373,-60.185 -50.204,0.26 -92.248,20.813 -92.008,61.351 l 0.935,154.589 c 0.24,40.537 42.511,60.546 92.729,60.236 49.573,-0.285 92.879,-20.864 92.652,-61.376 z"/></g><g transform="translate(2711.1919,1033.2128)" id="g256"><path id="path258" style="fill:#1f7632;fill-opacity:1;fill-rule:nonzero;stroke:none" d="M 0,0 H 1.225 C 6.292,16.489 33.617,26.663 54.69,26.532 104.907,26.247 106.6,-1.604 106.423,-32.72 l -1.276,-213.971 -78.718,0.492 1.25,209.725 c 0.038,6.601 -3.65,14.161 -14.161,14.238 -10.561,0.077 -13.707,-7.43 -13.745,-14.031 l -1.251,-209.75 -78.756,0.464 1.617,269.653 78.756,-0.492 z"/></g><g transform="translate(2916.5088,841.0634)" id="g260"><path id="path262" style="fill:#1f7632;fill-opacity:1;fill-rule:nonzero;stroke:none" d="m 0,0 c -0.038,-6.575 2.994,-14.134 13.556,-14.238 10.523,-0.077 14.313,7.455 14.351,14.031 l 0.455,77.76 -14.288,-7.429 C 2.817,62.643 0.366,60.805 0.278,49.001 Z m -77.783,157.437 c 0.24,40.537 42.511,60.546 92.728,60.236 49.586,-0.337 92.855,-20.864 92.615,-61.376 L 106.625,-1.14 c -0.113,-18.871 3.512,-36.784 5.256,-54.721 l -79.982,0.516 -4.169,27.362 h -1.276 c -10.637,-21.616 -29.903,-30.442 -52.845,-30.338 -39.694,0.285 -52.554,18.275 -52.378,48.897 l 0.329,57.985 c 0.404,67.872 106.877,41.288 107.219,99.711 l 0.063,10.821 c 0.038,6.626 -3.638,14.212 -14.15,14.237 C 4.131,173.407 0.973,165.902 0.935,159.3 l -0.215,-38.621 -78.718,0.466 z"/></g><g transform="translate(3045.6973,785.123)" id="g264"><path id="path266" style="fill:#1f7632;fill-opacity:1;fill-rule:nonzero;stroke:none" d="M 0,0 1.983,335.583 80.74,335.092 78.756,-0.49 Z"/></g><g transform="translate(3255.019,949.705)" id="g268"><path id="path270" style="fill:#1f7632;fill-opacity:1;fill-rule:nonzero;stroke:none" d="m 0,0 0.278,48.536 c 0.038,6.601 -3.639,14.16 -14.162,14.237 -10.549,0.078 -13.707,-7.428 -13.745,-14.055 L -27.907,0.182 Z m -106.348,46.879 c 0.241,40.512 42.512,60.52 92.729,60.186 49.574,-0.286 92.843,-20.813 92.603,-61.377 l -0.506,-86.743 -106.625,0.7 -0.417,-70.228 c -0.038,-6.602 2.994,-14.16 13.556,-14.239 10.51,-0.05 14.313,7.482 14.351,14.083 l 0.29,51.849 78.719,-0.491 -0.303,-49.494 c -0.227,-40.537 -43.737,-60.548 -93.322,-60.236 -50.206,0.337 -92.249,20.863 -92.009,61.375 z"/></g><g transform="translate(3535.667,991.5351)" id="g272"><path id="path274" style="fill:#1f7632;fill-opacity:1;fill-rule:nonzero;stroke:none" d="M 0,0 C 0.038,6.602 -3.651,14.16 -14.175,14.239 -24.736,14.291 -27.869,6.757 -27.907,0.156 l -0.897,-149.852 c -0.038,-6.626 3.02,-14.159 13.581,-14.238 10.523,-0.025 14.288,7.457 14.326,14.032 z m -27.73,31.763 h 1.238 c 5.078,18.794 25.001,31.399 48.588,31.27 C 71.037,62.722 78.92,32.488 78.731,2.331 l -0.922,-156.945 c -0.19,-30.183 -8.427,-58.838 -57.369,-58.554 -23.573,0.156 -43.344,11.571 -48.221,27.154 h -1.238 l -0.492,-83.894 -78.718,0.49 1.97,329.941 78.706,-0.492 z"/></g><g transform="translate(3740.8701,994.9531)" id="g276"><path id="path278" style="fill:#1f7632;fill-opacity:1;fill-rule:nonzero;stroke:none" d="M 0,0 C 0.038,6.627 -3.626,14.185 -14.149,14.237 -24.71,14.314 -27.869,6.809 -27.907,0.155 l -0.935,-159.275 c -0.037,-6.6 3.007,-14.158 13.556,-14.21 10.523,-0.078 14.313,7.454 14.351,14.03 z m 77.784,-157.41 c -0.241,-40.512 -43.737,-60.522 -93.323,-60.237 -50.255,0.31 -92.287,20.864 -92.059,61.376 l 0.935,154.615 c 0.24,40.486 42.524,60.521 92.767,60.21 49.585,-0.311 92.854,-20.838 92.614,-61.349 z"/></g><g transform="translate(3968.8389,809.3789)" id="g280"><path id="path282" style="fill:#1f7632;fill-opacity:1;fill-rule:nonzero;stroke:none" d="m 0,0 -1.226,0.052 c -0.1,-18.379 -26.871,-33.316 -50.457,-33.187 -40.881,0.287 -55.056,20.14 -54.879,48.434 l 1.339,224.817 78.744,-0.492 -1.239,-209.726 c -0.05,-6.627 3.008,-14.16 13.569,-14.238 10.523,-0.025 14.288,7.455 14.326,14.03 l 1.251,209.779 78.718,-0.491 -1.604,-269.628 -78.719,0.493 z"/></g><g transform="translate(4166.7021,1024.6436)" id="g284"><path id="path286" style="fill:#1f7632;fill-opacity:1;fill-rule:nonzero;stroke:none" d="m 0,0 1.238,-0.051 c 11.888,16.437 29.284,26.248 56.559,26.067 39.062,-0.233 48.866,-18.197 48.702,-47.449 l -0.606,-101.342 -78.719,0.492 0.518,85.319 c 0.038,6.574 -3.65,14.159 -14.174,14.236 -10.562,0.079 -13.695,-7.455 -13.733,-14.029 l -1.251,-209.777 -78.718,0.49 1.605,269.628 78.718,-0.494 z"/></g><g transform="translate(4371.1411,776.6084)" id="g288"><path id="path290" style="fill:#1f7632;fill-opacity:1;fill-rule:nonzero;stroke:none" d="M 0,0 1.983,335.608 80.74,335.115 78.756,-0.493 Z"/></g><g transform="translate(4580.4639,941.1884)" id="g292"><path id="path294" style="fill:#1f7632;fill-opacity:1;fill-rule:nonzero;stroke:none" d="m 0,0 0.277,48.562 c 0.026,6.599 -3.664,14.16 -14.174,14.237 -10.562,0.077 -13.695,-7.454 -13.746,-14.082 L -27.92,0.207 Z m -106.323,46.905 c 0.227,40.486 42.486,60.495 92.703,60.211 49.573,-0.31 92.855,-20.865 92.603,-61.401 l -0.505,-86.743 -106.625,0.698 -0.43,-70.228 c -0.051,-6.6 3.007,-14.16 13.568,-14.21 10.511,-0.079 14.301,7.455 14.326,14.03 l 0.329,51.848 78.705,-0.465 -0.278,-49.494 c -0.227,-40.563 -43.736,-60.573 -93.309,-60.236 -50.231,0.311 -92.249,20.863 -92.01,61.376 z"/></g><g transform="translate(4893.8955,821.5195)" id="g296"><path id="path298" style="fill:#1f7632;fill-opacity:1;fill-rule:nonzero;stroke:none" d="M 0,0 15.489,-0.103 C 29.133,-0.182 31.078,12.528 31.18,21.951 l 1.136,195.127 c 0.051,9.421 -1.743,22.157 -15.386,22.236 l -15.49,0.128 z m -85.704,288.029 102.911,-0.646 c 53.945,-0.312 102.836,-17.111 102.558,-61.919 L 118.501,12.426 C 118.248,-32.331 69.155,-48.537 15.211,-48.2 l -102.886,0.648 z"/></g><g transform="translate(5137.4414,937.7724)" id="g300"><path id="path302" style="fill:#1f7632;fill-opacity:1;fill-rule:nonzero;stroke:none" d="m 0,0 0.278,48.561 c 0.026,6.6 -3.664,14.16 -14.174,14.238 -10.562,0.05 -13.696,-7.482 -13.746,-14.083 L -27.92,0.181 Z m -39.542,126.554 59.225,63.291 60.134,-0.362 -85.275,-63.136 z m -66.806,-79.701 c 0.228,40.538 42.499,60.546 92.729,60.236 49.573,-0.284 92.855,-20.838 92.603,-61.376 l -0.505,-86.741 -106.625,0.646 -0.431,-70.177 c -0.05,-6.601 3.008,-14.159 13.568,-14.238 10.512,-0.051 14.277,7.483 14.327,14.058 l 0.328,51.848 78.706,-0.465 -0.278,-49.495 c -0.227,-40.563 -43.736,-60.571 -93.335,-60.235 -50.205,0.311 -92.249,20.812 -91.996,61.375 z"/></g><g transform="translate(5311.5791,1040.4344)" id="g304"><path id="path306" style="fill:#1f7632;fill-opacity:1;fill-rule:nonzero;stroke:none" d="m 0,0 19.254,-206.154 h 1.263 L 46.491,-0.337 118.4,-0.776 65.365,-270.04 l -96.089,0.596 -50.482,269.91 z"/></g><g transform="translate(5532.2334,935.2089)" id="g308"><path id="path310" style="fill:#1f7632;fill-opacity:1;fill-rule:nonzero;stroke:none" d="M 0,0 0.277,48.537 C 0.329,55.162 -3.361,62.721 -13.872,62.799 -24.434,62.85 -27.565,55.318 -27.617,48.716 L -27.895,0.181 Z m -106.373,46.853 c 0.227,40.539 42.523,60.547 92.779,60.237 49.573,-0.285 92.83,-20.864 92.603,-61.375 l -0.53,-86.743 -106.601,0.647 -0.455,-70.178 c -0.026,-6.6 3.032,-14.159 13.594,-14.236 10.51,-0.052 14.275,7.43 14.326,14.03 l 0.303,51.849 78.731,-0.491 -0.277,-49.494 c -0.253,-40.511 -43.763,-60.521 -93.336,-60.185 -50.255,0.285 -92.299,20.814 -92.046,61.376 z"/></g><g transform="translate(5644.4424,768.6865)" id="g312"><path id="path314" style="fill:#1f7632;fill-opacity:1;fill-rule:nonzero;stroke:none" d="M 0,0 1.997,335.583 80.753,335.09 78.757,-0.492 Z"/></g><g transform="translate(5854.0547,981.8291)" id="g316"><path id="path318" style="fill:#1f7632;fill-opacity:1;fill-rule:nonzero;stroke:none" d="M 0,0 C 0.025,6.626 -3.664,14.187 -14.174,14.237 -24.736,14.315 -27.868,6.782 -27.92,0.155 l -0.96,-159.3 c -0.025,-6.575 3.032,-14.159 13.594,-14.186 10.511,-0.077 14.275,7.43 14.326,14.031 z m 77.797,-157.437 c -0.254,-40.51 -43.737,-60.521 -93.336,-60.236 -50.255,0.337 -92.274,20.863 -92.047,61.375 l 0.91,154.615 c 0.253,40.513 42.524,60.521 92.78,60.237 C 35.677,58.218 78.934,37.69 78.706,-2.82 Z"/></g><g transform="translate(6061.6465,975.8505)" id="g320"><path id="path322" style="fill:#1f7632;fill-opacity:1;fill-rule:nonzero;stroke:none" d="M 0,0 C 0.05,6.574 -3.614,14.133 -14.1,14.185 -24.661,14.263 -27.818,6.755 -27.87,0.154 l -0.859,-149.851 c -0.05,-6.628 3.007,-14.16 13.569,-14.238 10.484,-0.078 14.25,7.429 14.301,14.03 z m -27.667,31.762 1.237,-0.052 c 5.078,18.844 24.964,31.45 48.537,31.269 48.942,-0.285 56.8,-30.494 56.649,-60.676 l -0.961,-156.919 c -0.151,-30.183 -8.362,-58.89 -57.305,-58.58 -23.574,0.181 -43.357,11.597 -48.183,27.18 h -1.239 l -0.53,-83.895 -78.706,0.491 1.946,329.94 78.706,-0.492 z"/></g><g transform="translate(6286.1152,966.7636)" id="g324"><path id="path326" style="fill:#1f7632;fill-opacity:1;fill-rule:nonzero;stroke:none" d="M 0,0 C 0.051,6.602 -3.588,14.16 -14.124,14.237 -24.687,14.289 -27.844,6.756 -27.895,0.182 l -0.884,-149.879 c -0.025,-6.627 3.032,-14.133 13.593,-14.237 10.511,-0.027 14.276,7.455 14.327,14.082 z m -27.692,31.762 h 1.238 c 5.078,18.793 24.988,31.399 48.588,31.296 48.94,-0.337 56.8,-30.546 56.622,-60.676 L 77.82,-154.615 c -0.175,-30.132 -8.387,-58.838 -57.33,-58.555 -23.573,0.156 -43.382,11.598 -48.233,27.155 h -1.212 l -0.531,-83.895 -78.706,0.492 1.945,329.938 78.706,-0.49 z"/></g><g transform="translate(6503.2559,929.4365)" id="g328"><path id="path330" style="fill:#1f7632;fill-opacity:1;fill-rule:nonzero;stroke:none" d="m 0,0 0.279,48.509 c 0.05,6.653 -3.638,14.213 -14.175,14.238 -10.561,0.078 -13.695,-7.429 -13.719,-14.03 l -0.28,-48.535 z m -106.371,46.853 c 0.226,40.538 42.498,60.546 92.753,60.236 49.598,-0.335 92.854,-20.864 92.602,-61.375 l -0.505,-86.742 -106.625,0.646 -0.43,-70.177 c -0.051,-6.6 3.008,-14.158 13.568,-14.236 10.536,-0.104 14.301,7.43 14.326,14.03 l 0.328,51.851 78.707,-0.494 -0.278,-49.493 c -0.227,-40.511 -43.736,-60.522 -93.31,-60.236 -50.255,0.335 -92.299,20.864 -92.046,61.427 z"/></g><g transform="translate(6680.4258,1007.9736)" id="g332"><path id="path334" style="fill:#1f7632;fill-opacity:1;fill-rule:nonzero;stroke:none" d="m 0,0 h 1.213 c 12.508,17.861 21.25,27.206 52.884,26.999 27.92,-0.155 41.488,-6.342 50.66,-28.112 13.72,17.837 22.487,27.673 54.096,27.465 49.623,-0.285 54.374,-30.001 54.272,-50.27 l -1.314,-222.928 -78.756,0.466 1.238,209.727 c 0.025,6.6 -3.613,14.159 -14.148,14.236 -10.563,0.053 -13.721,-7.48 -13.772,-14.056 l -1.237,-209.726 -78.706,0.491 1.237,209.701 c 0.026,6.601 -3.612,14.211 -14.148,14.237 -10.537,0.104 -13.72,-7.428 -13.771,-14.03 l -1.213,-209.752 -78.731,0.492 1.592,269.626 78.706,-0.491 z"/></g><g transform="translate(7027.1855,926.2265)" id="g336"><path id="path338" style="fill:#1f7632;fill-opacity:1;fill-rule:nonzero;stroke:none" d="m 0,0 0.279,48.511 c 0.05,6.625 -3.638,14.212 -14.15,14.235 -10.561,0.078 -13.694,-7.429 -13.744,-14.029 l -0.28,-48.563 z m -106.321,46.854 c 0.227,40.537 42.498,60.546 92.728,60.236 C 35.98,106.754 79.236,86.226 79.01,45.715 l -0.531,-86.742 -106.6,0.646 -0.455,-70.203 c -0.025,-6.574 3.032,-14.134 13.594,-14.212 10.51,-0.102 14.275,7.43 14.326,14.03 l 0.302,51.85 78.733,-0.492 -0.279,-49.493 c -0.252,-40.511 -43.762,-60.521 -93.335,-60.236 -50.204,0.337 -92.249,20.864 -92.021,61.401 z"/></g><g transform="translate(7228.8389,1005.2558)" id="g340"><path id="path342" style="fill:#1f7632;fill-opacity:1;fill-rule:nonzero;stroke:none" d="m 0,0 h 1.239 c 5.053,16.411 32.392,26.637 53.464,26.508 50.23,-0.338 51.923,-28.138 51.722,-59.253 l -1.265,-213.945 -78.705,0.465 1.213,209.726 c 0.051,6.601 -3.613,14.16 -14.124,14.237 -10.562,0.053 -13.72,-7.48 -13.772,-14.055 l -1.237,-209.727 -78.756,0.492 1.592,269.575 78.756,-0.493 z"/></g><g transform="translate(7455.3555,1027.4395)" id="g344"><path id="path346" style="fill:#1f7632;fill-opacity:1;fill-rule:nonzero;stroke:none" d="m 0,0 21.703,-0.103 -0.226,-44.342 -21.73,0.13 -0.985,-162.589 c -0.026,-8.492 1.794,-18.379 13.568,-18.456 l 9.298,-0.078 -0.277,-44.292 -35.324,0.183 c -56.42,0.389 -66.249,13.641 -66.021,55.109 l 1.035,170.614 -21.072,0.155 0.227,44.291 21.073,-0.129 0.329,49.002 78.706,-0.467 z"/></g><g transform="translate(7573.1992,756.8828)" id="g348"><path id="path350" style="fill:#1f7632;fill-opacity:1;fill-rule:nonzero;stroke:none" d="m 0,0 1.996,335.608 87.398,-0.543 -0.708,-121.637 31.002,-0.156 0.708,121.585 87.422,-0.517 -1.996,-335.61 -87.397,0.545 0.934,160.258 -31.002,0.182 L 87.423,-0.52 Z"/></g><g transform="translate(7915.6885,784.9941)" id="g352"><path id="path354" style="fill:#1f7632;fill-opacity:1;fill-rule:nonzero;stroke:none" d="m 0,0 h -1.213 c -0.126,-18.379 -26.884,-33.314 -50.457,-33.159 -40.882,0.258 -55.057,20.138 -54.905,48.405 l 1.314,224.845 78.756,-0.492 -1.238,-209.752 c -0.025,-6.602 3.032,-14.159 13.568,-14.186 10.536,-0.104 14.302,7.429 14.352,14.03 l 1.213,209.752 78.731,-0.492 -1.592,-269.625 -78.706,0.491 z"/></g><g transform="translate(8108.7266,999.2753)" id="g356"><path id="path358" style="fill:#1f7632;fill-opacity:1;fill-rule:nonzero;stroke:none" d="M 0,0 H 1.238 C 13.745,17.811 22.486,27.207 54.121,27 82.015,26.845 95.583,20.606 104.755,-1.139 118.5,16.697 127.268,26.56 158.876,26.354 208.5,26.067 213.25,-3.701 213.124,-23.97 l -1.313,-222.926 -78.731,0.491 1.212,209.753 c 0.051,6.599 -3.613,14.158 -14.124,14.235 -10.562,0.053 -13.745,-7.48 -13.77,-14.08 l -1.239,-209.7 -78.706,0.466 1.213,209.724 c 0.051,6.601 -3.612,14.161 -14.124,14.237 -10.561,0.08 -13.72,-7.427 -13.77,-14.029 l -1.239,-209.753 -78.704,0.493 1.592,269.625 78.704,-0.491 z"/></g><g transform="translate(8419.3789,806.9189)" id="g360"><path id="path362" style="fill:#1f7632;fill-opacity:1;fill-rule:nonzero;stroke:none" d="m 0,0 c -0.023,-6.602 3.033,-14.158 13.594,-14.212 10.511,-0.077 14.277,7.455 14.326,14.031 L 28.4,77.581 14.1,70.151 C 2.881,62.67 0.38,60.78 0.33,49.028 Z m -77.744,157.464 c 0.226,40.511 42.498,60.493 92.728,60.21 49.574,-0.311 92.829,-20.838 92.602,-61.401 L 106.627,-1.139 c -0.102,-18.843 3.537,-36.783 5.279,-54.696 l -79.969,0.466 -4.167,27.412 h -1.29 c -10.637,-21.64 -29.89,-30.44 -52.832,-30.337 -39.694,0.26 -52.58,18.275 -52.404,48.898 l 0.379,57.985 c 0.379,67.846 106.854,41.286 107.206,99.711 l 0.052,10.82 c 0.025,6.626 -3.664,14.186 -14.175,14.236 -10.561,0.079 -13.694,-7.427 -13.745,-14.08 l -0.227,-38.623 -78.732,0.494 z"/></g><g transform="translate(8572.9756,1035.6201)" id="g364"><path id="path366" style="fill:#1f7632;fill-opacity:1;fill-rule:nonzero;stroke:none" d="M 0,0 0.278,50.917 79.034,50.426 78.757,-0.491 Z m -1.718,-284.666 1.592,269.627 78.756,-0.493 -1.592,-269.625 z"/></g><g transform="translate(8753.1523,995.8847)" id="g368"><path id="path370" style="fill:#1f7632;fill-opacity:1;fill-rule:nonzero;stroke:none" d="m 0,0 h 1.238 c 5.028,16.437 32.393,26.638 53.465,26.533 50.205,-0.337 51.922,-28.164 51.721,-59.252 l -1.264,-213.97 -78.73,0.49 1.238,209.726 c 0.024,6.602 -3.614,14.161 -14.125,14.238 -10.563,0.026 -13.745,-7.482 -13.795,-14.081 l -1.215,-209.728 -78.754,0.492 1.592,269.6 78.756,-0.491 z"/></g><path id="path372" style="fill:#ff0000;fill-opacity:1;fill-rule:nonzero;stroke:none" d="m 8929.133,480.058 h -8787.4 v 143.196 h 8787.4 z"/><path id="path374" style="fill:#1f7632;fill-opacity:1;fill-rule:nonzero;stroke:none" d="M 8929.133,2544.448 H 153.38 v 143.195 h 8775.753 z"/><path id="path376" style="fill:none;stroke:#000000;stroke-width:0.1;stroke-linecap:butt;stroke-linejoin:miter;stroke-miterlimit:4;stroke-dasharray:none;stroke-opacity:1" d="M 9070.866,-0.001 H -0.001 v 3401.575 h 9070.867 z"/></g></g></g></svg>